<svg width="509" height="474" viewBox="0 0 509 474" fill="none" xmlns="http://www.w3.org/2000/svg">
<path d="M498.733 343.827C491.987 333.899 482.435 325.339 471.748 318.264C460.346 310.774 447.092 305.661 435.511 298.349C423.451 290.74 413.183 278.315 419.75 265.355C425.242 254.476 436.705 246.154 443.331 235.691C455.57 216.251 459.092 193.661 455.629 172.022C448.167 125.415 409.72 88.735 360.348 68.2254C307.573 46.289 246.023 41.2359 188.173 48.3103C157.547 52.0555 127.697 59.546 99.6384 70.3655C86.2059 75.5375 72.4151 81.2445 60.5349 88.735C50.6247 94.9771 41.8488 103.062 40.0578 113.763C37.9683 126.366 45.9083 138.077 54.0275 148.124C63.9377 160.37 74.2061 172.497 84.2954 184.684C93.6683 195.979 104.116 207.096 111.817 219.343C118.921 230.638 121.787 243.36 113.131 254.655C106.325 263.453 95.2803 269.576 85.3104 275.581C74.2062 282.298 63.8184 289.432 55.2813 298.468C37.7892 317.016 28.1178 340.379 29.073 364.039C30.0879 387.878 41.2518 411.003 60.5349 428.6C78.027 444.532 101.31 455.292 125.727 462.01C165.249 472.829 207.218 474.732 248.53 473.483C311.394 471.581 388.168 470.154 446.137 445.959C456.883 441.738 467.092 436.447 475.987 429.908C481.897 425.568 498.494 413.5 498.494 406.366C511.091 386.451 512.046 363.504 498.733 343.827Z" fill="#F5F5FA"/>
<path d="M338.617 337.228H284.768C284.231 337.228 283.813 336.812 283.813 336.277C283.813 335.742 284.231 335.326 284.768 335.326H338.617C355.333 335.326 368.885 321.772 368.885 305.186V260.659C368.885 260.124 369.303 259.708 369.84 259.708C370.378 259.708 370.796 260.124 370.796 260.659V305.186C370.855 322.842 356.408 337.228 338.617 337.228Z" fill="#CEC4E1"/>
<path d="M369.9 294.544C367.93 294.544 366.378 292.999 366.378 291.037V260.659C366.378 258.697 367.93 257.152 369.9 257.152C371.87 257.152 373.423 258.697 373.423 260.659V291.037C373.423 292.939 371.811 294.544 369.9 294.544Z" fill="#CEC4E1"/>
<path d="M354.916 434.664C354.438 434.664 354.02 434.307 353.96 433.831L341.244 336.218C341.185 335.683 341.543 335.207 342.08 335.148C342.617 335.088 343.095 335.445 343.155 335.98L355.871 433.594C355.93 434.129 355.572 434.604 355.035 434.664C354.975 434.664 354.975 434.664 354.916 434.664Z" fill="#CEC4E1"/>
<path d="M288.41 434.664C288.35 434.664 288.35 434.664 288.29 434.664C287.753 434.604 287.395 434.129 287.454 433.594L300.171 335.98C300.23 335.445 300.708 335.088 301.245 335.148C301.783 335.207 302.141 335.683 302.081 336.218L289.365 433.831C289.305 434.367 288.887 434.664 288.41 434.664Z" fill="#CEC4E1"/>
<path d="M348.826 390.375H294.619C294.081 390.375 293.663 389.959 293.663 389.424C293.663 388.889 294.081 388.473 294.619 388.473H348.826C349.363 388.473 349.781 388.889 349.781 389.424C349.781 389.959 349.363 390.375 348.826 390.375Z" fill="#CEC4E1"/>
<path d="M341.364 248.591H313.961C313.603 248.591 313.364 248.294 313.364 247.997V213.636C313.364 205.729 319.812 199.368 327.692 199.368C335.632 199.368 342.02 205.788 342.02 213.636V247.997C341.961 248.294 341.722 248.591 341.364 248.591Z" fill="#832886"/>
<path d="M322.2 239.436C322.677 238.128 323.095 236.285 322.677 234.68C323.334 233.729 324.886 233.253 325.842 232.718C326.379 232.421 327.036 232.064 327.453 231.589C328.289 230.697 327.334 230.697 326.498 230.757C321.483 231.054 316.051 231.589 311.275 233.194C307.633 234.442 304.23 236.285 301.902 239.495C301.185 240.447 300.648 241.517 300.171 242.646V242.706C294.917 253.05 293.305 269.338 276.768 271.3C252.351 274.154 243.575 278.85 243.575 278.85V285.865C243.575 285.865 279.276 294.069 302.797 285.33C325.782 276.769 330.319 250.672 322.2 239.436Z" fill="white"/>
<path d="M305.424 294.485C305.424 294.485 284.648 230.578 332.409 230.578C372.408 230.578 367.93 249.84 367.632 293.474L305.424 294.485Z" fill="white"/>
<path d="M303.574 295.02C303.335 295.02 303.156 294.901 303.096 294.663C303.036 294.485 297.842 275.759 304.23 251.623C304.29 251.385 304.588 251.207 304.827 251.266C305.066 251.326 305.245 251.623 305.185 251.861C298.857 275.759 303.991 294.247 304.051 294.426C304.111 294.663 303.991 294.961 303.693 295.02C303.633 294.961 303.574 295.02 303.574 295.02Z" fill="#CEC4E1"/>
<path d="M297.842 268.387C297.902 267.971 297.842 267.614 297.723 267.198C297.604 266.842 297.425 266.485 297.186 266.128C297.066 265.95 296.887 265.772 296.708 265.653C296.171 265.237 295.514 265.058 294.917 265.058C294.44 265.058 294.022 265.118 293.604 265.296L293.544 265.177C293.305 265.296 293.066 265.415 292.887 265.534C292.708 265.653 292.589 265.772 292.41 265.95C292.171 266.128 292.052 266.426 291.932 266.723C291.813 267.02 291.753 267.258 291.514 267.496C291.335 267.793 291.693 268.268 291.335 268.447C291.275 268.625 291.574 268.863 291.275 268.982C291.275 269.041 291.335 269.16 291.335 269.22V269.279L291.395 269.398C291.096 269.636 291.514 269.874 291.574 270.111C291.634 270.171 291.693 270.23 291.693 270.23C291.693 270.29 291.634 270.29 291.514 270.349C291.574 270.409 291.693 270.468 291.753 270.527C291.753 270.587 291.813 270.706 291.872 270.765C291.992 270.884 292.111 271.003 292.231 271.122C292.29 271.181 292.35 271.181 292.35 271.241C292.41 271.241 292.469 271.181 292.529 271.181C292.708 271.3 292.887 271.122 293.007 271.3C293.126 271.36 293.305 271.419 293.425 271.479L293.484 271.36C293.544 271.419 293.663 271.419 293.723 271.419L293.783 271.3C294.022 271.36 294.32 271.419 294.619 271.479H294.678C294.977 271.479 295.335 271.479 295.634 271.419L295.574 271.241C295.813 271.181 296.051 271.122 296.29 271.003C296.589 270.884 296.827 270.706 297.066 270.468L297.126 270.409C297.245 270.29 297.365 270.171 297.425 270.052L297.305 269.933C297.425 269.755 297.544 269.576 297.663 269.398C297.783 269.22 297.842 269.041 297.902 268.803L297.962 268.625C297.962 268.506 298.022 268.387 298.022 268.268L297.842 268.387Z" fill="#EAEAF5"/>
<path d="M300.768 252.396C300.827 251.98 300.768 251.623 300.648 251.207C300.529 250.85 300.35 250.493 300.111 250.137C299.992 249.958 299.812 249.78 299.633 249.661C299.096 249.245 298.439 249.067 297.842 249.067C297.365 249.067 296.947 249.126 296.529 249.304L296.469 249.186C296.23 249.304 295.992 249.423 295.813 249.542C295.633 249.661 295.514 249.78 295.335 249.958C295.096 250.137 294.977 250.434 294.857 250.731C294.738 251.028 294.678 251.266 294.439 251.504C294.26 251.801 294.619 252.277 294.26 252.455C294.201 252.634 294.499 252.871 294.201 252.99C294.201 253.05 294.26 253.169 294.26 253.228V253.288L294.32 253.406C294.022 253.644 294.439 253.882 294.499 254.12C294.559 254.179 294.619 254.239 294.619 254.239C294.619 254.298 294.559 254.298 294.439 254.358C294.499 254.417 294.619 254.476 294.678 254.536C294.678 254.595 294.738 254.714 294.798 254.774C294.917 254.893 295.036 255.011 295.156 255.13C295.216 255.19 295.275 255.19 295.275 255.249C295.335 255.249 295.395 255.19 295.454 255.19C295.633 255.309 295.813 255.13 295.932 255.309C296.051 255.368 296.23 255.428 296.35 255.487L296.41 255.368C296.469 255.428 296.589 255.428 296.648 255.428L296.708 255.309C296.947 255.368 297.245 255.428 297.544 255.487H297.604C297.902 255.487 298.26 255.487 298.559 255.428L298.499 255.249C298.738 255.19 298.977 255.13 299.215 255.011C299.514 254.893 299.753 254.714 299.992 254.476L300.051 254.417C300.171 254.298 300.29 254.179 300.35 254.06L300.23 253.941C300.35 253.763 300.469 253.585 300.589 253.406C300.708 253.228 300.768 253.05 300.827 252.812L300.887 252.634C300.887 252.515 300.947 252.396 300.947 252.277L300.768 252.396Z" fill="#EAEAF5"/>
<path d="M309.961 237.712C310.021 237.236 309.961 236.701 309.842 236.226C309.723 235.75 309.484 235.334 309.185 234.918C309.006 234.68 308.827 234.502 308.588 234.323C307.932 233.788 307.096 233.551 306.32 233.551C305.723 233.551 305.126 233.67 304.588 233.848L304.529 233.67C304.23 233.788 303.932 233.967 303.693 234.145C303.454 234.323 303.275 234.502 303.096 234.68C302.797 234.918 302.618 235.275 302.439 235.631C302.32 235.988 302.2 236.345 301.902 236.583C301.663 236.999 302.081 237.534 301.663 237.831C301.544 238.069 302.021 238.366 301.603 238.544C301.603 238.663 301.663 238.723 301.663 238.842V238.901L301.723 239.02C301.365 239.317 301.902 239.674 301.962 239.971C302.021 240.031 302.081 240.09 302.141 240.149C302.081 240.209 302.021 240.268 301.962 240.328C302.081 240.387 302.141 240.447 302.26 240.566C302.26 240.684 302.32 240.744 302.38 240.863C302.499 241.041 302.678 241.16 302.857 241.279C302.917 241.338 302.977 241.398 303.036 241.457C303.096 241.457 303.215 241.398 303.275 241.398C303.454 241.576 303.753 241.279 303.932 241.517C304.111 241.636 304.29 241.695 304.469 241.755L304.529 241.576C304.648 241.636 304.708 241.636 304.827 241.695L304.887 241.517C305.245 241.636 305.544 241.695 305.902 241.695H305.962C306.379 241.695 306.738 241.695 307.156 241.636L307.096 241.457C307.394 241.398 307.753 241.279 308.051 241.16C308.409 240.982 308.767 240.744 309.066 240.506L309.126 240.447C309.245 240.328 309.424 240.149 309.484 240.031L309.305 239.912C309.484 239.674 309.603 239.436 309.723 239.198C309.842 238.96 309.902 238.723 310.021 238.485L310.081 238.307C310.14 238.128 310.141 238.009 310.141 237.831L309.961 237.712Z" fill="#EAEAF5"/>
<path d="M280.41 272.133C280.47 271.657 280.41 271.181 280.291 270.706C280.171 270.29 279.932 269.814 279.634 269.457C279.455 269.22 279.276 269.041 279.037 268.863C278.38 268.387 277.604 268.15 276.888 268.15C276.35 268.15 275.753 268.268 275.276 268.447L275.216 268.268C274.918 268.387 274.679 268.506 274.38 268.744C274.201 268.863 273.962 269.041 273.843 269.22C273.544 269.398 273.365 269.814 273.246 270.171C273.127 270.527 273.007 270.825 272.768 271.062C272.589 271.419 272.947 271.954 272.53 272.251C272.41 272.489 272.828 272.727 272.47 272.905C272.47 273.024 272.53 273.084 272.53 273.203V273.262L272.589 273.381C272.231 273.678 272.768 273.975 272.828 274.273C272.888 274.332 272.947 274.392 272.947 274.451C272.888 274.51 272.888 274.57 272.768 274.629C272.888 274.689 272.947 274.748 273.067 274.808C273.067 274.927 273.127 274.986 273.186 275.105C273.306 275.283 273.485 275.402 273.604 275.521C273.664 275.581 273.724 275.64 273.783 275.699C273.843 275.699 273.903 275.64 274.022 275.64C274.201 275.818 274.44 275.521 274.619 275.759C274.798 275.878 274.977 275.937 275.156 275.997L275.216 275.818C275.335 275.878 275.395 275.878 275.515 275.937L275.574 275.759C275.873 275.878 276.231 275.937 276.529 275.937H276.589C276.947 275.937 277.365 275.937 277.723 275.878L277.664 275.699C277.962 275.64 278.261 275.521 278.559 275.402C278.917 275.224 279.216 275.046 279.514 274.748L279.574 274.689C279.694 274.57 279.813 274.451 279.932 274.273L279.753 274.154C279.932 273.916 280.052 273.738 280.171 273.5C280.291 273.262 280.35 273.024 280.41 272.786L280.47 272.608C280.529 272.43 280.529 272.311 280.529 272.133H280.41Z" fill="#EAEAF5"/>
<path d="M328.11 235.75C330.558 235.75 332.588 233.729 332.588 231.292V218.451C332.588 216.013 330.558 213.992 328.11 213.992C325.662 213.992 323.633 216.013 323.633 218.451V231.292C323.633 233.788 325.662 235.75 328.11 235.75Z" fill="#8E85BF"/>
<path d="M281.723 278.85C281.723 278.85 271.037 277.067 268.41 283.844C268.41 283.844 272.112 286.578 281.723 285.925V278.85Z" fill="#8E85BF"/>
<path d="M243.754 278.85C243.754 278.85 233.068 277.067 230.441 283.844C230.441 283.844 234.142 286.578 243.754 285.925V278.85Z" fill="#8E85BF"/>
<path d="M323.633 228.081C328.528 228.141 332.468 224.217 332.528 219.343L332.588 212.328C332.647 207.453 328.707 203.529 323.812 203.47C318.916 203.411 314.976 207.334 314.916 212.209L314.857 219.224C314.857 224.098 318.797 228.022 323.633 228.081Z" fill="#8E85BF"/>
<path d="M334.995 220.464C336.239 219.241 336.252 217.247 335.024 216.008C333.797 214.77 331.793 214.757 330.549 215.979C329.306 217.202 329.293 219.196 330.52 220.435C331.748 221.673 333.751 221.686 334.995 220.464Z" fill="#8E85BF"/>
<path d="M229.486 428.362L220.292 433.534C219.038 434.248 219.516 436.15 221.008 436.15H250.022L250.261 428.006L229.486 428.362Z" fill="#CEC4E1"/>
<path d="M269.246 428.362L260.052 433.534C258.798 434.248 259.276 436.15 260.769 436.15H289.783L290.022 428.006L269.246 428.362Z" fill="#CEC4E1"/>
<path d="M328.409 293.475C328.409 290.74 319.155 291.572 307.454 293.831L225.844 295.139C171.338 313.211 229.426 428.362 229.426 428.362L250.202 428.065C261.485 381.577 247.157 335.564 247.157 335.564C247.157 335.564 273.783 335.564 300.409 335.564C327.095 335.504 328.409 308.634 328.409 293.475Z" fill="#E5B039"/>
<path d="M350.378 234.264C331.155 234.205 339.334 268.506 314.916 271.36C290.499 274.213 281.723 278.91 281.723 278.91V285.925C281.723 285.925 317.424 294.128 340.945 285.389C370.497 274.273 369.601 234.324 350.378 234.264Z" fill="white"/>
<path d="M349.065 254.655C349.124 254.298 349.065 253.941 348.945 253.585C348.826 253.228 348.707 252.931 348.468 252.634C348.348 252.455 348.169 252.336 348.05 252.217C347.572 251.861 346.975 251.682 346.438 251.682C346.02 251.682 345.602 251.742 345.244 251.92L345.184 251.801C344.946 251.92 344.766 251.98 344.587 252.158C344.408 252.277 344.289 252.396 344.169 252.515C343.931 252.693 343.811 252.931 343.752 253.228C343.632 253.466 343.572 253.704 343.393 253.882C343.214 254.179 343.513 254.536 343.214 254.774C343.155 254.952 343.453 255.13 343.155 255.249C343.155 255.309 343.214 255.368 343.214 255.428V255.487L343.274 255.606C343.035 255.844 343.393 256.082 343.453 256.26C343.513 256.319 343.513 256.319 343.572 256.379C343.572 256.438 343.513 256.438 343.453 256.498C343.513 256.557 343.572 256.617 343.632 256.676C343.632 256.735 343.692 256.795 343.752 256.914C343.871 257.033 343.931 257.152 344.05 257.211C344.11 257.27 344.11 257.27 344.169 257.33C344.229 257.33 344.289 257.27 344.349 257.27C344.468 257.389 344.647 257.211 344.826 257.389C344.946 257.449 345.065 257.508 345.184 257.568L345.244 257.449C345.304 257.449 345.363 257.508 345.483 257.508L345.543 257.389C345.781 257.449 346.02 257.508 346.259 257.508H346.319C346.617 257.508 346.916 257.508 347.214 257.449V257.33C347.453 257.27 347.692 257.211 347.871 257.092C348.11 256.973 348.348 256.795 348.587 256.617L348.647 256.557C348.766 256.438 348.826 256.379 348.945 256.26L348.826 256.2C348.945 256.022 349.065 255.903 349.124 255.725C349.184 255.546 349.244 255.368 349.304 255.19L349.363 255.071C349.363 254.952 349.423 254.833 349.423 254.714L349.065 254.655Z" fill="#EAEAF5"/>
<path d="M290.619 277.067C290.678 276.71 290.618 276.353 290.499 275.997C290.38 275.64 290.26 275.343 290.022 275.046C289.902 274.867 289.723 274.748 289.604 274.629C289.126 274.273 288.529 274.094 287.992 274.094C287.574 274.094 287.156 274.154 286.798 274.332L286.738 274.213C286.499 274.332 286.32 274.392 286.141 274.57C285.962 274.689 285.843 274.808 285.723 274.927C285.484 275.105 285.365 275.343 285.305 275.64C285.186 275.878 285.126 276.116 284.947 276.294C284.768 276.591 285.066 276.948 284.768 277.186C284.708 277.364 285.007 277.542 284.708 277.661C284.708 277.721 284.768 277.78 284.768 277.84V277.899L284.828 278.018C284.589 278.256 284.947 278.493 285.007 278.672C285.066 278.731 285.066 278.731 285.126 278.791C285.126 278.85 285.066 278.85 285.007 278.91C285.066 278.969 285.126 279.029 285.186 279.088C285.186 279.147 285.246 279.207 285.305 279.326C285.425 279.445 285.484 279.564 285.604 279.623C285.663 279.682 285.663 279.682 285.723 279.742C285.783 279.742 285.843 279.682 285.902 279.682C286.022 279.801 286.201 279.623 286.38 279.801C286.499 279.861 286.619 279.92 286.738 279.98L286.798 279.861C286.857 279.861 286.917 279.92 287.037 279.92L287.096 279.801C287.335 279.861 287.574 279.92 287.813 279.92H287.872C288.171 279.92 288.469 279.92 288.768 279.861V279.742C289.007 279.682 289.245 279.623 289.425 279.504C289.663 279.385 289.902 279.207 290.141 279.029L290.201 278.969C290.32 278.85 290.38 278.791 290.499 278.672L290.38 278.612C290.499 278.434 290.618 278.315 290.678 278.137C290.738 277.958 290.798 277.78 290.857 277.602L290.917 277.483C290.917 277.364 290.977 277.245 290.977 277.126L290.619 277.067Z" fill="#EAEAF5"/>
<path d="M358.736 241.398C358.796 240.803 358.736 240.268 358.557 239.674C358.378 239.139 358.139 238.604 357.781 238.128C357.602 237.89 357.363 237.653 357.065 237.415C356.288 236.82 355.393 236.523 354.497 236.523C353.841 236.523 353.184 236.642 352.527 236.88L352.468 236.642C352.109 236.761 351.811 236.939 351.512 237.177C351.274 237.355 351.035 237.534 350.856 237.772C350.498 238.009 350.318 238.485 350.139 238.901C349.96 239.317 349.841 239.674 349.542 239.971C349.304 240.447 349.781 241.041 349.304 241.398C349.184 241.636 349.721 241.992 349.244 242.171C349.244 242.29 349.304 242.408 349.363 242.527V242.587L349.423 242.765C349.005 243.122 349.662 243.479 349.662 243.835C349.722 243.895 349.781 243.954 349.841 244.014C349.781 244.073 349.721 244.132 349.602 244.192C349.721 244.251 349.841 244.37 349.96 244.43C349.96 244.549 350.02 244.667 350.139 244.786C350.318 244.965 350.498 245.143 350.677 245.321C350.736 245.381 350.796 245.44 350.915 245.5C351.035 245.5 351.095 245.44 351.154 245.44C351.393 245.619 351.692 245.321 351.871 245.619C352.05 245.738 352.289 245.797 352.468 245.916L352.527 245.678C352.647 245.738 352.766 245.738 352.886 245.797L352.945 245.559C353.303 245.678 353.721 245.738 354.139 245.797H354.199C354.677 245.797 355.094 245.797 355.572 245.678L355.512 245.44C355.871 245.381 356.229 245.262 356.587 245.084C357.005 244.905 357.363 244.608 357.721 244.311L357.781 244.251C357.96 244.073 358.079 243.954 358.199 243.776L358.02 243.657C358.199 243.419 358.378 243.122 358.497 242.884C358.617 242.587 358.736 242.349 358.796 242.052L358.856 241.814C358.915 241.636 358.915 241.457 358.915 241.279L358.736 241.398Z" fill="#EAEAF5"/>
<path d="M339.931 268.209C339.99 267.793 339.931 267.436 339.811 267.02C339.692 266.663 339.513 266.307 339.274 265.95C339.155 265.772 338.976 265.593 338.796 265.474C338.259 265.058 337.602 264.88 337.005 264.88C336.528 264.88 336.11 264.939 335.692 265.118L335.632 264.999C335.394 265.118 335.155 265.237 334.976 265.355C334.797 265.474 334.677 265.593 334.498 265.772C334.259 265.95 334.14 266.247 334.02 266.544C333.901 266.842 333.841 267.079 333.603 267.317C333.423 267.614 333.782 268.09 333.423 268.268C333.364 268.447 333.662 268.685 333.364 268.803C333.364 268.863 333.423 268.982 333.423 269.041V269.101L333.483 269.22C333.185 269.457 333.603 269.695 333.662 269.933C333.722 269.992 333.782 270.052 333.782 270.052C333.782 270.111 333.722 270.111 333.603 270.171C333.662 270.23 333.782 270.29 333.841 270.349C333.841 270.409 333.901 270.527 333.961 270.587C334.08 270.706 334.2 270.825 334.319 270.944C334.379 271.003 334.438 271.003 334.438 271.062C334.498 271.062 334.558 271.003 334.617 271.003C334.797 271.122 334.976 270.944 335.095 271.122C335.214 271.181 335.394 271.241 335.513 271.3L335.573 271.181C335.632 271.241 335.752 271.241 335.811 271.241L335.871 271.122C336.11 271.181 336.408 271.241 336.707 271.3H336.767C337.065 271.3 337.423 271.3 337.722 271.241L337.662 271.062C337.901 271.003 338.14 270.944 338.379 270.825C338.677 270.706 338.916 270.527 339.155 270.29L339.214 270.23C339.334 270.111 339.453 269.992 339.513 269.874L339.393 269.755C339.513 269.576 339.632 269.398 339.752 269.22C339.871 269.041 339.931 268.863 339.99 268.625L340.05 268.447C340.05 268.328 340.11 268.209 340.11 268.09L339.931 268.209Z" fill="#EAEAF5"/>
<path d="M326.021 276.888C326.08 276.413 326.021 275.997 325.901 275.521C325.782 275.105 325.603 274.689 325.304 274.332C325.125 274.154 324.946 273.916 324.767 273.797C324.17 273.322 323.394 273.084 322.737 273.084C322.2 273.084 321.663 273.143 321.185 273.381L321.125 273.203C320.886 273.322 320.588 273.44 320.349 273.619C320.17 273.738 319.991 273.916 319.812 274.094C319.513 274.273 319.394 274.629 319.215 274.986C319.096 275.343 318.976 275.64 318.737 275.878C318.558 276.235 318.916 276.71 318.499 277.007C318.379 277.186 318.797 277.483 318.439 277.661C318.439 277.78 318.499 277.84 318.499 277.899V277.959L318.558 278.077C318.2 278.375 318.737 278.672 318.737 278.91C318.797 278.969 318.857 279.029 318.857 279.088C318.797 279.147 318.797 279.207 318.678 279.266C318.797 279.326 318.857 279.385 318.916 279.445C318.916 279.564 318.976 279.623 319.036 279.742C319.155 279.861 319.275 280.039 319.454 280.158C319.513 280.218 319.573 280.277 319.633 280.277C319.692 280.277 319.752 280.218 319.812 280.218C319.991 280.336 320.23 280.099 320.409 280.336C320.588 280.396 320.707 280.515 320.886 280.574L320.946 280.396C321.066 280.455 321.125 280.455 321.245 280.515L321.304 280.336C321.603 280.455 321.901 280.515 322.26 280.515H322.319C322.677 280.515 323.036 280.515 323.394 280.455L323.334 280.277C323.633 280.218 323.931 280.158 324.17 279.98C324.468 279.861 324.827 279.623 325.065 279.385L325.125 279.326C325.245 279.207 325.364 279.088 325.483 278.969L325.364 278.85C325.543 278.672 325.662 278.434 325.782 278.196C325.901 277.958 325.961 277.78 326.021 277.542L326.08 277.364C326.14 277.245 326.14 277.067 326.14 276.948L326.021 276.888Z" fill="#EAEAF5"/>
<path d="M330.319 287.114C330.379 286.697 330.319 286.341 330.2 285.925C330.08 285.568 329.901 285.211 329.662 284.854C329.543 284.676 329.364 284.498 329.185 284.379C328.647 283.963 327.991 283.784 327.394 283.784C326.916 283.784 326.498 283.844 326.08 284.022L326.021 283.903C325.782 284.022 325.543 284.141 325.364 284.26C325.185 284.379 325.065 284.498 324.886 284.676C324.647 284.854 324.528 285.152 324.409 285.449C324.289 285.746 324.23 285.984 323.991 286.222C323.812 286.519 324.17 286.995 323.812 287.173C323.752 287.351 324.05 287.589 323.752 287.708C323.752 287.767 323.812 287.886 323.812 287.946V288.005L323.871 288.124C323.573 288.362 323.991 288.6 324.05 288.838C324.11 288.897 324.17 288.956 324.17 288.956C324.17 289.016 324.11 289.016 323.991 289.075C324.05 289.135 324.17 289.194 324.23 289.254C324.23 289.313 324.289 289.432 324.349 289.491C324.468 289.61 324.588 289.729 324.707 289.848C324.767 289.908 324.827 289.908 324.827 289.967C324.886 289.967 324.946 289.908 325.006 289.908C325.185 290.026 325.364 289.848 325.483 290.026C325.603 290.086 325.782 290.145 325.901 290.205L325.961 290.086C326.021 290.145 326.14 290.145 326.2 290.145L326.259 290.026C326.498 290.086 326.797 290.145 327.095 290.205H327.155C327.453 290.205 327.812 290.205 328.11 290.145L328.05 289.967C328.289 289.908 328.528 289.848 328.767 289.729C329.065 289.61 329.304 289.432 329.543 289.194L329.603 289.135C329.722 289.016 329.841 288.897 329.901 288.778L329.782 288.659C329.901 288.481 330.02 288.302 330.14 288.124C330.259 287.946 330.319 287.767 330.379 287.53L330.438 287.351C330.438 287.232 330.498 287.114 330.498 286.995L330.319 287.114Z" fill="#EAEAF5"/>
<path d="M308.528 279.564C308.588 279.029 308.528 278.494 308.349 278.018C308.23 277.542 307.991 277.067 307.633 276.651C307.454 276.413 307.215 276.175 306.976 275.997C306.26 275.462 305.424 275.224 304.648 275.164C304.051 275.164 303.454 275.283 302.857 275.521L302.797 275.343C302.499 275.462 302.2 275.64 301.902 275.818C301.663 275.997 301.484 276.175 301.305 276.353C301.006 276.591 300.827 277.007 300.648 277.364C300.529 277.721 300.409 278.077 300.111 278.375C299.872 278.791 300.29 279.385 299.872 279.682C299.753 279.92 300.23 280.218 299.812 280.396C299.812 280.515 299.872 280.574 299.872 280.693V280.753L299.932 280.931C299.514 281.288 300.111 281.585 300.17 281.882C300.23 281.942 300.29 282.001 300.35 282.06C300.29 282.12 300.23 282.179 300.111 282.239C300.23 282.298 300.35 282.417 300.409 282.477C300.409 282.595 300.469 282.714 300.588 282.774C300.708 282.952 300.887 283.071 301.066 283.249C301.126 283.309 301.185 283.368 301.245 283.428C301.305 283.428 301.424 283.368 301.484 283.368C301.723 283.547 301.961 283.249 302.141 283.487C302.32 283.606 302.499 283.665 302.678 283.725L302.738 283.547C302.857 283.606 302.976 283.606 303.036 283.666L303.096 283.487C303.454 283.606 303.812 283.666 304.17 283.666H304.23C304.648 283.666 305.066 283.666 305.484 283.547L305.424 283.368C305.782 283.309 306.081 283.19 306.439 283.012C306.797 282.833 307.155 282.595 307.513 282.298L307.573 282.239C307.693 282.12 307.872 281.942 307.991 281.823L307.812 281.704C307.991 281.466 308.11 281.228 308.29 280.99C308.409 280.753 308.528 280.455 308.588 280.218L308.648 279.98C308.708 279.801 308.707 279.623 308.707 279.504L308.528 279.564Z" fill="#EAEAF5"/>
<path d="M355.095 269.874C355.154 269.398 355.094 268.922 354.975 268.447C354.856 267.971 354.617 267.555 354.318 267.139C354.139 266.901 353.96 266.723 353.721 266.544C353.065 266.009 352.289 265.831 351.513 265.772C350.916 265.772 350.378 265.891 349.841 266.069L349.781 265.89C349.483 266.009 349.184 266.188 348.945 266.366C348.766 266.485 348.528 266.663 348.348 266.901C348.05 267.139 347.871 267.496 347.751 267.852C347.632 268.209 347.513 268.506 347.214 268.803C347.035 269.22 347.393 269.755 346.975 269.992C346.856 270.23 347.334 270.468 346.916 270.646C346.916 270.765 346.975 270.825 346.975 270.944V271.003L347.035 271.122C346.677 271.419 347.214 271.716 347.274 272.014C347.334 272.073 347.393 272.133 347.393 272.192C347.334 272.251 347.334 272.311 347.214 272.37C347.334 272.43 347.393 272.489 347.513 272.608C347.513 272.727 347.572 272.786 347.632 272.905C347.751 273.084 347.931 273.203 348.05 273.322C348.11 273.381 348.169 273.44 348.229 273.5C348.289 273.5 348.348 273.44 348.468 273.44C348.647 273.619 348.886 273.322 349.065 273.559C349.244 273.678 349.423 273.738 349.602 273.797L349.662 273.619C349.781 273.678 349.841 273.678 349.96 273.738L350.02 273.559C350.378 273.678 350.677 273.738 351.035 273.738H351.095C351.513 273.738 351.871 273.738 352.289 273.678L352.229 273.5C352.527 273.44 352.826 273.322 353.124 273.203C353.483 273.024 353.781 272.786 354.08 272.549L354.139 272.489C354.259 272.37 354.378 272.251 354.498 272.073L354.318 271.954C354.498 271.716 354.617 271.538 354.736 271.3C354.856 271.062 354.915 270.825 354.975 270.587L355.035 270.409C355.095 270.23 355.095 270.111 355.095 269.933V269.874Z" fill="#EAEAF5"/>
<path d="M339.572 286.638C339.393 286.638 339.214 286.519 339.095 286.341C338.975 286.103 339.155 285.806 339.393 285.746C357.124 279.147 364.169 261.67 361.781 248.591C360.288 240.506 355.512 235.631 349.005 235.631C345.423 235.631 342.557 236.88 340.289 239.436C340.11 239.614 339.811 239.674 339.632 239.496C339.453 239.317 339.393 239.02 339.572 238.842C342.08 236.048 345.184 234.68 349.005 234.68C349.005 234.68 349.005 234.68 349.065 234.68C355.99 234.68 361.244 239.971 362.796 248.472C365.243 261.907 358.02 279.92 339.752 286.697C339.692 286.638 339.632 286.638 339.572 286.638Z" fill="#CEC4E1"/>
<path d="M281.723 279.385C281.544 279.385 281.365 279.266 281.305 279.147C281.186 278.91 281.246 278.612 281.484 278.493C281.843 278.315 290.618 273.738 314.857 270.884C327.394 269.398 330.976 259.946 334.498 250.791L335.214 248.888C335.334 248.651 335.573 248.532 335.811 248.591C336.05 248.71 336.17 248.948 336.11 249.186L335.394 251.088C331.812 260.54 328.11 270.29 314.976 271.776C290.977 274.57 282.022 279.207 281.962 279.266C281.902 279.326 281.783 279.385 281.723 279.385Z" fill="#CEC4E1"/>
<path d="M362.557 284.617C362.617 284.022 362.557 283.487 362.378 282.952C362.199 282.417 361.96 281.882 361.602 281.466C361.423 281.228 361.184 280.99 360.885 280.753C360.109 280.158 359.214 279.861 358.318 279.861C357.662 279.861 357.005 279.98 356.348 280.218L356.289 280.039C355.93 280.158 355.632 280.336 355.333 280.574C355.095 280.753 354.856 280.931 354.677 281.169C354.318 281.406 354.139 281.882 353.96 282.298C353.781 282.714 353.662 283.071 353.363 283.368C353.124 283.844 353.602 284.438 353.124 284.795C353.005 285.033 353.483 285.39 353.065 285.568C353.065 285.687 353.124 285.806 353.184 285.925V285.984L353.244 286.162C352.826 286.519 353.423 286.876 353.483 287.232C353.542 287.292 353.602 287.351 353.662 287.411C353.602 287.47 353.542 287.53 353.423 287.589C353.542 287.649 353.662 287.767 353.781 287.827C353.781 287.946 353.841 288.065 353.96 288.184C354.139 288.362 354.259 288.54 354.498 288.719C354.557 288.778 354.617 288.837 354.736 288.897C354.796 288.897 354.915 288.838 354.975 288.838C355.214 289.016 355.512 288.719 355.692 289.016C355.871 289.135 356.109 289.194 356.289 289.313L356.348 289.075C356.468 289.135 356.587 289.135 356.706 289.194L356.766 288.956C357.124 289.075 357.542 289.135 357.96 289.194H358.02C358.497 289.194 358.915 289.194 359.393 289.075L359.333 288.838C359.691 288.778 360.05 288.659 360.408 288.481C360.826 288.302 361.184 288.005 361.542 287.708L361.602 287.649C361.781 287.47 361.9 287.351 362.02 287.173L361.841 287.054C362.02 286.816 362.199 286.519 362.318 286.281C362.438 285.984 362.557 285.746 362.617 285.449L362.676 285.211C362.736 285.033 362.736 284.854 362.736 284.676L362.557 284.617Z" fill="#EAEAF5"/>
<path d="M371.452 273.143C371.512 272.668 371.452 272.192 371.333 271.716C371.214 271.3 370.975 270.825 370.676 270.468C370.497 270.23 370.318 270.052 370.079 269.874C369.423 269.398 368.647 269.16 367.93 269.16C367.393 269.16 366.856 269.279 366.318 269.457L366.259 269.279C365.96 269.398 365.721 269.517 365.483 269.755C365.303 269.874 365.065 270.052 364.945 270.23C364.647 270.409 364.468 270.825 364.348 271.181C364.229 271.538 364.109 271.835 363.871 272.073C363.692 272.43 364.05 272.965 363.632 273.262C363.512 273.5 363.93 273.738 363.572 273.916C363.572 274.035 363.632 274.094 363.632 274.213V274.273L363.692 274.392C363.333 274.689 363.871 274.986 363.93 275.283C363.99 275.343 364.05 275.402 364.05 275.462C363.99 275.521 363.99 275.581 363.871 275.64C363.99 275.699 364.05 275.759 364.169 275.818C364.169 275.937 364.229 275.997 364.289 276.116C364.408 276.234 364.587 276.413 364.706 276.532C364.766 276.591 364.826 276.651 364.886 276.71C364.945 276.71 365.005 276.651 365.124 276.651C365.303 276.829 365.542 276.532 365.721 276.77C365.9 276.888 366.08 276.948 366.259 277.007L366.318 276.829C366.438 276.888 366.497 276.888 366.617 276.948L366.677 276.77C366.975 276.888 367.333 276.948 367.632 276.948H367.691C368.05 276.948 368.467 276.948 368.826 276.888L368.766 276.71C369.065 276.651 369.363 276.532 369.661 276.413C370.02 276.234 370.318 276.056 370.617 275.759L370.676 275.699C370.796 275.581 370.915 275.462 371.035 275.283L370.915 275.164C371.094 274.986 371.214 274.748 371.333 274.51C371.452 274.273 371.512 274.035 371.572 273.797L371.632 273.619C371.691 273.44 371.691 273.322 371.691 273.143H371.452Z" fill="#EAEAF5"/>
<path d="M345.184 230.638C345.244 230.222 345.184 229.865 345.065 229.449C344.946 229.092 344.767 228.735 344.528 228.379C344.408 228.2 344.229 228.022 344.05 227.903C343.513 227.487 342.856 227.309 342.259 227.309C341.782 227.309 341.364 227.368 340.946 227.546L340.886 227.428C340.647 227.546 340.408 227.665 340.229 227.784C340.05 227.903 339.931 228.022 339.752 228.2C339.513 228.379 339.394 228.676 339.274 228.973C339.155 229.27 339.095 229.508 338.856 229.746C338.677 230.043 339.035 230.519 338.677 230.697C338.617 230.876 338.916 231.113 338.617 231.232C338.617 231.292 338.677 231.411 338.677 231.47V231.529L338.737 231.648C338.438 231.886 338.856 232.124 338.916 232.362C338.976 232.421 339.035 232.481 339.035 232.481C339.035 232.54 338.976 232.54 338.856 232.6C338.916 232.659 339.035 232.718 339.095 232.778C339.095 232.837 339.155 232.956 339.214 233.016C339.334 233.135 339.453 233.253 339.573 233.372C339.632 233.432 339.692 233.432 339.692 233.491C339.752 233.491 339.811 233.432 339.871 233.432C340.05 233.551 340.229 233.372 340.349 233.551C340.468 233.61 340.647 233.67 340.767 233.729L340.826 233.61C340.886 233.67 341.005 233.67 341.065 233.67L341.125 233.551C341.364 233.61 341.662 233.67 341.961 233.729H342.02C342.319 233.729 342.677 233.729 342.976 233.67L342.916 233.491C343.155 233.432 343.393 233.372 343.632 233.253C343.931 233.135 344.17 232.956 344.408 232.718L344.468 232.659C344.587 232.54 344.707 232.421 344.767 232.302L344.647 232.183C344.767 232.005 344.886 231.827 345.005 231.648C345.125 231.47 345.184 231.292 345.244 231.054L345.304 230.876C345.304 230.757 345.364 230.638 345.364 230.519L345.184 230.638Z" fill="#EAEAF5"/>
<path d="M188.532 287.946H272.47L261.843 236.88C261.425 234.977 259.813 233.67 257.843 233.67H182.263C179.696 233.67 177.786 236.047 178.263 238.544L188.532 287.946Z" fill="#CEC4E1"/>
<path d="M214.62 287.946H298.559C298.379 285.627 296.469 283.844 294.141 283.844H214.799L214.62 287.946Z" fill="#CEC4E1"/>
<path d="M223.874 265.415C226.248 265.415 228.172 263.499 228.172 261.135C228.172 258.771 226.248 256.854 223.874 256.854C221.5 256.854 219.576 258.771 219.576 261.135C219.576 263.499 221.5 265.415 223.874 265.415Z" fill="white"/>
<path d="M367.631 293.475C367.631 290.74 358.975 291.572 347.274 293.831L265.664 295.139C211.158 313.211 269.246 428.362 269.246 428.362L290.021 428.065C301.305 381.577 286.977 335.742 286.977 335.742C286.977 335.742 311.036 335.742 337.662 335.742C358.736 335.742 367.631 311.666 367.631 293.475Z" fill="#FFC83C"/>
<path d="M102.504 433.891L100.594 433.594L120.772 295.555C121.25 293.177 123.16 292.167 124.891 292.167C124.891 292.167 124.891 292.167 124.951 292.167C126.682 292.167 128.593 293.237 129.011 295.555L147.279 433.594L145.369 433.832L127.1 295.852C126.862 294.544 125.787 294.069 124.951 294.069C124.115 294.069 123.041 294.544 122.742 295.852L102.504 433.891Z" fill="#832886"/>
<path d="M366.617 433.891L364.706 433.594L384.885 295.555C385.363 293.177 387.273 292.167 389.004 292.167C389.004 292.167 389.004 292.167 389.064 292.167C390.795 292.167 392.706 293.237 393.123 295.555L411.392 433.594L409.481 433.832L391.213 295.852C390.974 294.544 389.9 294.069 389.064 294.069C388.228 294.069 387.154 294.544 386.855 295.852L366.617 433.891Z" fill="#832886"/>
<path d="M423.69 287.886H87.4595V297.339H423.69V287.886Z" fill="#832886"/>
<path d="M343.095 208.285C348.271 208.285 352.468 204.107 352.468 198.952C352.468 193.797 348.271 189.619 343.095 189.619C337.918 189.619 333.722 193.797 333.722 198.952C333.722 204.107 337.918 208.285 343.095 208.285Z" fill="#832886"/>
<path d="M318.26 204.243C318.26 204.243 317.663 216.37 332.528 215.122C332.528 215.122 336.05 198.595 318.26 204.243Z" fill="#832886"/>
<path d="M316.886 219.105H322.618C322.618 219.105 322.498 222.018 319.752 222.018C316.886 222.077 316.886 219.105 316.886 219.105Z" fill="white"/>
<path d="M123.638 287.946C123.638 287.946 135.817 277.186 148.234 287.946H123.638Z" fill="#CEC4E1"/>
<path d="M277.425 196.336C272.828 196.336 268.589 194.493 264.53 192.769C262.918 192.056 261.246 191.343 259.575 190.748C255.276 189.202 250.56 189.321 246.083 189.44C240.948 189.559 235.635 189.678 230.68 187.478C222.74 183.852 220.053 175.054 220.173 168.098C220.292 160.965 223.098 154.247 225.486 149.194C233.963 131.419 248.112 101.695 275.634 107.104C284.529 108.888 292.171 114.357 296.171 121.729C298.26 125.593 298.738 129.754 299.156 133.737C299.514 137.007 299.872 140.039 301.007 143.011C301.902 145.449 302.977 147.529 303.992 149.55C306.797 155.079 309.245 159.835 306.977 167.742C305.006 174.697 300.529 181.593 293.663 188.132C290.38 191.283 285.902 195.028 280.35 196.039C279.395 196.277 278.38 196.336 277.425 196.336ZM249.724 187.062C253.247 187.062 256.829 187.3 260.351 188.548C262.082 189.143 263.754 189.916 265.425 190.629C270.261 192.71 274.858 194.731 279.992 193.78C284.888 192.888 289.067 189.44 292.111 186.527C298.619 180.226 302.917 173.746 304.768 167.147C306.797 160.132 304.648 155.911 301.962 150.621C300.887 148.54 299.813 146.4 298.857 143.903C297.604 140.693 297.245 137.364 296.887 134.094C296.41 130.111 295.992 126.366 294.141 122.858C290.499 116.022 283.395 111.028 275.216 109.364C249.485 104.251 236.292 131.894 227.635 150.204C225.307 155.02 222.68 161.44 222.561 168.158C222.441 174.4 224.77 182.188 231.755 185.398C236.172 187.419 241.008 187.3 246.142 187.181C247.217 187.122 248.471 187.062 249.724 187.062Z" fill="white"/>
<path d="M306.618 130.349C291.753 108.293 262.739 118.102 242.62 125.236C236.53 127.376 230.501 130.17 225.844 134.57C220.531 139.623 217.188 147.291 219.814 154.425C223.217 163.58 233.545 167.979 237.844 177.015C240.889 183.317 242.262 190.748 248.411 195.028C252.53 197.882 257.784 198.536 262.798 198.595C270.739 198.714 279.097 197.585 286.141 193.661C295.514 188.489 294.977 181.355 298.977 172.497C302.021 165.78 308.409 161.381 310.618 154.187C313.006 146.221 311.215 137.245 306.618 130.349Z" fill="#CEC4E1"/>
<path d="M284.768 172.973L247.694 180.345L236.531 124.285L273.604 116.913C275.156 116.616 276.649 117.627 276.947 119.113L287.037 169.585C287.276 171.19 286.32 172.676 284.768 172.973Z" fill="#FCFAF8"/>
<path d="M282.619 173.389L245.545 180.761L234.381 124.701L271.455 117.33C273.007 117.032 274.5 118.043 274.798 119.529L284.888 170.001C285.186 171.606 284.171 173.092 282.619 173.389Z" fill="#832886"/>
<path d="M259.634 159.062C254.023 159.062 248.948 155.079 247.814 149.432C247.157 146.281 247.814 143.071 249.605 140.455C251.396 137.78 254.142 135.996 257.246 135.342C263.754 134.035 270.142 138.255 271.395 144.795C272.709 151.274 268.47 157.635 261.903 158.884C261.187 159.003 260.411 159.062 259.634 159.062ZM259.634 135.759C258.918 135.759 258.142 135.818 257.426 135.996C254.441 136.591 251.873 138.315 250.202 140.812C248.53 143.308 247.933 146.34 248.53 149.253C249.724 155.376 255.694 159.3 261.843 158.111C267.992 156.922 271.933 150.977 270.739 144.854C269.664 139.504 264.948 135.759 259.634 135.759Z" fill="#8E85BF"/>
<path d="M248.291 149.669L248.112 148.956L271.037 144.438L271.157 145.151L248.291 149.669Z" fill="#8E85BF"/>
<path d="M257.707 135.562L257.005 135.701L261.559 158.499L262.261 158.36L257.707 135.562Z" fill="#8E85BF"/>
<path d="M261.664 158.824C256.231 155.852 253.187 152.226 252.53 148.005C251.515 141.347 256.828 135.699 257.067 135.461L257.605 135.937C257.545 135.996 252.291 141.584 253.306 147.886C253.903 151.869 256.888 155.376 262.082 158.23L261.664 158.824Z" fill="#8E85BF"/>
<path d="M262.381 158.646L261.843 158.17C265.545 153.534 266.977 149.194 266.022 145.27C264.47 139.028 257.485 135.937 257.426 135.877L257.724 135.223C258.023 135.342 265.127 138.553 266.739 145.092C267.694 149.313 266.261 153.89 262.381 158.646Z" fill="#8E85BF"/>
<path d="M256.709 143.546C254.56 143.546 252.112 142.952 249.426 141.406L249.784 140.752C257.784 145.27 263.217 141.525 266.381 137.542L266.918 138.018C265.067 140.395 261.605 143.546 256.709 143.546Z" fill="#8E85BF"/>
<path d="M253.127 156.744L252.59 156.268C255.276 152.998 261.067 148.124 269.783 152.939L269.425 153.593C261.545 149.253 256.172 152.939 253.127 156.744Z" fill="#8E85BF"/>
<path d="M270.446 163.138L255.632 166.073L255.947 167.647L270.761 164.712L270.446 163.138Z" fill="#E6E9E9"/>
<path d="M263.156 126.638L248.342 129.572L248.657 131.146L263.471 128.212L263.156 126.638Z" fill="#E6E9E9"/>
<path d="M274.385 165.385L252.954 169.63L253.269 171.204L274.7 166.959L274.385 165.385Z" fill="#E6E9E9"/>
<path d="M305.007 128.09L286.619 187.062C286.44 187.597 285.903 187.895 285.365 187.716L260.291 179.928C259.754 179.75 259.455 179.215 259.635 178.68L278.082 119.707C278.261 119.172 278.798 118.875 279.336 119.054L304.41 126.841C304.887 127.02 305.186 127.555 305.007 128.09Z" fill="#FCFAF8"/>
<path d="M284.35 120.659L265.306 181.534L260.172 179.928C259.694 179.75 259.396 179.275 259.575 178.799L278.022 119.767C278.201 119.232 278.738 118.935 279.276 119.113L284.35 120.659Z" fill="#8E85BF"/>
<path d="M286.091 175.727C287.296 171.872 285.134 167.773 281.262 166.573C277.389 165.374 273.274 167.527 272.069 171.383C270.864 175.238 273.026 179.337 276.898 180.537C280.771 181.736 284.886 179.583 286.091 175.727Z" fill="#CEC4E1"/>
<path d="M288.57 126.791L285.182 137.634L286.323 137.987L289.71 127.145L288.57 126.791Z" fill="#E6E9E9"/>
<path d="M289.321 131.849L287.299 138.32L288.439 138.673L290.461 132.202L289.321 131.849Z" fill="#E6E9E9"/>
<path d="M294.677 128.675L291.289 139.517L292.429 139.87L295.817 129.029L294.677 128.675Z" fill="#E6E9E9"/>
<path d="M296.543 130.181L293.403 140.228L294.543 140.581L297.683 130.534L296.543 130.181Z" fill="#E6E9E9"/>
<path d="M280.866 151.315L277.479 162.156L278.619 162.509L282.006 151.668L280.866 151.315Z" fill="#E6E9E9"/>
<path d="M284.539 147.153L279.644 162.819L280.784 163.172L285.679 147.506L284.539 147.153Z" fill="#E6E9E9"/>
<path d="M288.145 149.575L283.622 164.049L284.762 164.402L289.285 149.928L288.145 149.575Z" fill="#E6E9E9"/>
<path d="M290.673 149.031L285.778 164.699L286.918 165.052L291.814 149.384L290.673 149.031Z" fill="#E6E9E9"/>
<path d="M272.53 138.671C272.53 138.671 272.47 138.671 272.53 138.671L272.231 138.612C272.172 138.612 272.112 138.493 272.112 138.434C272.112 138.374 272.231 138.315 272.291 138.315L272.53 138.374C272.589 138.374 272.649 138.493 272.649 138.553C272.649 138.612 272.589 138.671 272.53 138.671Z" fill="#E6E9E9"/>
<path d="M297.783 146.519L297.186 146.34C297.126 146.34 297.066 146.221 297.066 146.162C297.066 146.102 297.186 146.043 297.245 146.043L297.783 146.221C297.842 146.221 297.902 146.34 297.902 146.4C297.902 146.459 297.842 146.519 297.783 146.519ZM296.231 145.984C296.171 145.984 296.171 145.984 296.231 145.984L295.634 145.805C295.574 145.805 295.514 145.686 295.514 145.627C295.514 145.567 295.634 145.508 295.693 145.508L296.231 145.686C296.29 145.686 296.35 145.805 296.35 145.865C296.29 145.984 296.29 145.984 296.231 145.984ZM294.619 145.508L294.081 145.33C294.022 145.33 293.962 145.211 293.962 145.151C293.962 145.092 294.081 145.032 294.141 145.032L294.678 145.211C294.738 145.211 294.798 145.33 294.798 145.389C294.738 145.449 294.678 145.508 294.619 145.508ZM293.066 145.032C293.007 145.032 293.007 145.032 293.066 145.032L292.469 144.854C292.41 144.854 292.35 144.735 292.35 144.676C292.35 144.616 292.469 144.557 292.529 144.557L293.066 144.735C293.126 144.735 293.186 144.854 293.186 144.914C293.186 144.973 293.126 145.032 293.066 145.032ZM291.455 144.557L290.858 144.378C290.798 144.378 290.738 144.26 290.738 144.2C290.738 144.141 290.858 144.081 290.917 144.081L291.455 144.26C291.514 144.26 291.574 144.378 291.574 144.438C291.574 144.497 291.514 144.557 291.455 144.557ZM289.902 144.022C289.902 144.022 289.843 144.022 289.902 144.022L289.365 143.843C289.305 143.843 289.246 143.725 289.246 143.665C289.246 143.606 289.365 143.546 289.425 143.546L289.962 143.725C290.022 143.725 290.081 143.843 290.081 143.903C290.022 144.022 289.962 144.022 289.902 144.022ZM288.29 143.546L287.693 143.368C287.634 143.368 287.574 143.249 287.574 143.19C287.574 143.13 287.693 143.071 287.753 143.071L288.29 143.249C288.35 143.249 288.41 143.368 288.41 143.427C288.41 143.546 288.35 143.546 288.29 143.546ZM286.738 143.071C286.738 143.071 286.679 143.071 286.738 143.071L286.141 142.892C286.082 142.892 286.022 142.773 286.022 142.714C286.022 142.654 286.141 142.595 286.201 142.595L286.738 142.773C286.798 142.773 286.858 142.892 286.858 142.952C286.858 143.011 286.798 143.071 286.738 143.071ZM285.126 142.595L284.589 142.417C284.529 142.417 284.47 142.298 284.47 142.238C284.47 142.179 284.589 142.119 284.649 142.119L285.186 142.298C285.246 142.298 285.305 142.417 285.305 142.476C285.246 142.536 285.186 142.595 285.126 142.595ZM283.574 142.119C283.574 142.119 283.514 142.06 283.574 142.119L282.977 141.941C282.917 141.941 282.858 141.822 282.858 141.763C282.858 141.703 282.977 141.644 283.037 141.644L283.574 141.822C283.634 141.822 283.694 141.941 283.694 142.001C283.694 142.06 283.634 142.119 283.574 142.119ZM281.962 141.584L281.365 141.406C281.306 141.406 281.246 141.287 281.246 141.228C281.246 141.168 281.365 141.109 281.425 141.109L281.962 141.287C282.022 141.287 282.082 141.406 282.082 141.466C282.082 141.584 282.022 141.584 281.962 141.584ZM280.41 141.109L279.873 140.93C279.813 140.93 279.753 140.812 279.753 140.752C279.753 140.693 279.873 140.633 279.932 140.633L280.47 140.812C280.529 140.812 280.589 140.93 280.589 140.99C280.529 141.049 280.47 141.109 280.41 141.109ZM278.858 140.633C278.798 140.633 278.798 140.633 278.858 140.633L278.261 140.455C278.201 140.455 278.141 140.336 278.141 140.277C278.141 140.217 278.261 140.158 278.321 140.158L278.858 140.336C278.918 140.336 278.977 140.455 278.977 140.514C278.918 140.574 278.918 140.633 278.858 140.633ZM277.246 140.158L276.649 139.979C276.589 139.979 276.53 139.86 276.53 139.801C276.53 139.742 276.649 139.682 276.709 139.682L277.246 139.86C277.306 139.86 277.365 139.979 277.365 140.039C277.365 140.098 277.306 140.158 277.246 140.158ZM275.694 139.623C275.634 139.623 275.634 139.623 275.694 139.623L275.156 139.444C275.097 139.444 275.037 139.325 275.037 139.266C275.037 139.206 275.156 139.147 275.216 139.147L275.753 139.325C275.813 139.325 275.873 139.444 275.873 139.504C275.813 139.623 275.753 139.623 275.694 139.623ZM274.082 139.147L273.485 138.969C273.425 138.969 273.365 138.85 273.365 138.79C273.365 138.731 273.485 138.671 273.545 138.671L274.082 138.85C274.142 138.85 274.201 138.969 274.201 139.028C274.201 139.088 274.142 139.147 274.082 139.147Z" fill="#E6E9E9"/>
<path d="M299.096 146.875L298.798 146.816C298.738 146.816 298.678 146.697 298.678 146.638C298.678 146.578 298.798 146.519 298.857 146.519L299.096 146.578C299.156 146.578 299.216 146.697 299.216 146.756C299.216 146.875 299.156 146.875 299.096 146.875Z" fill="#E6E9E9"/>
<path d="M267.973 160.502L263.078 176.17L264.218 176.523L269.113 160.855L267.973 160.502Z" fill="#E6E9E9"/>
<path d="M279.373 123.93L275.985 134.772L277.125 135.125L280.513 124.284L279.373 123.93Z" fill="#E6E9E9"/>
<path d="M279.097 177.491C279.037 177.491 279.037 177.491 278.977 177.491C278.858 177.432 278.739 177.372 278.679 177.194L278.38 176.362L278.022 176.243C277.962 176.243 277.843 176.183 277.843 176.064C277.783 176.005 277.783 175.886 277.843 175.827C277.903 175.648 278.022 175.589 278.201 175.589L277.664 174.103L275.395 173.389C275.216 173.33 275.037 173.211 274.918 173.032L274.56 172.557C274.44 172.379 274.38 172.2 274.44 172.022C274.5 171.844 274.619 171.665 274.858 171.606L275.395 171.427C275.574 171.368 275.813 171.368 275.992 171.427L278.321 172.141L279.515 171.249C279.395 171.19 279.336 171.011 279.395 170.892C279.395 170.833 279.455 170.714 279.574 170.714C279.634 170.655 279.753 170.655 279.813 170.714L280.171 170.833L280.947 170.238C281.067 170.179 281.246 170.12 281.365 170.179C281.485 170.238 281.604 170.357 281.664 170.476C281.724 170.595 281.664 170.773 281.604 170.892L280.35 172.735L282.141 173.27L283.515 172.795C283.634 172.735 283.813 172.795 283.932 172.914C284.052 173.032 284.052 173.151 284.052 173.33L283.395 174.459C283.455 174.519 283.515 174.519 283.574 174.638C283.634 174.697 283.634 174.816 283.574 174.875C283.515 175.054 283.335 175.113 283.216 175.113L283.156 176.362C283.097 176.54 282.977 176.659 282.858 176.659C282.679 176.659 282.559 176.599 282.5 176.48L281.664 175.232L279.873 174.697V176.956C279.873 177.075 279.813 177.253 279.694 177.313C279.336 177.432 279.216 177.491 279.097 177.491ZM278.44 176.124C278.5 176.124 278.559 176.183 278.559 176.183L278.858 177.075C278.858 177.134 278.918 177.194 279.037 177.194C279.097 177.194 279.156 177.194 279.216 177.134C279.276 177.075 279.276 177.016 279.276 176.956V174.519C279.276 174.459 279.276 174.459 279.336 174.4C279.395 174.4 279.395 174.4 279.455 174.4L281.425 174.994C281.425 174.994 281.485 174.994 281.485 175.054L282.38 176.302C282.44 176.362 282.5 176.362 282.5 176.362C282.559 176.362 282.619 176.302 282.619 176.243L282.738 174.875C282.738 174.816 282.738 174.816 282.798 174.756C282.858 174.756 282.858 174.756 282.918 174.756L283.037 174.816C283.097 174.816 283.156 174.816 283.156 174.756V174.697L283.097 174.638L282.977 174.578C282.918 174.578 282.918 174.519 282.918 174.519C282.918 174.459 282.918 174.459 282.918 174.4L283.634 173.151C283.634 173.151 283.634 173.092 283.574 173.032C283.515 172.973 283.455 172.973 283.395 172.973L281.962 173.449H281.903L279.933 172.854C279.873 172.854 279.873 172.795 279.873 172.795C279.873 172.735 279.873 172.735 279.873 172.676L281.246 170.655C281.306 170.595 281.306 170.536 281.306 170.476C281.306 170.417 281.246 170.357 281.186 170.357C281.127 170.357 281.067 170.357 281.007 170.357L280.171 170.952C280.112 170.952 280.112 171.011 280.052 170.952L279.694 170.833H279.634L279.574 170.892C279.574 170.952 279.574 171.011 279.634 171.011L279.753 171.071C279.813 171.071 279.813 171.13 279.813 171.19C279.813 171.249 279.813 171.308 279.753 171.308L278.38 172.319C278.321 172.319 278.321 172.379 278.261 172.379L275.873 171.665C275.754 171.606 275.574 171.606 275.455 171.665L274.918 171.844C274.798 171.903 274.739 171.962 274.679 172.081C274.619 172.2 274.679 172.319 274.739 172.438L275.097 172.914C275.216 173.032 275.336 173.151 275.455 173.151L277.783 173.865C277.843 173.865 277.843 173.924 277.843 173.924L277.724 173.984H277.843L278.44 175.708C278.44 175.767 278.44 175.827 278.44 175.827C278.38 175.886 278.38 175.886 278.321 175.886L278.142 175.827C278.082 175.827 278.022 175.827 278.022 175.886V175.945L278.082 176.005L278.44 176.124Z" fill="white"/>
<path d="M386.198 182.306C371.333 182.306 362.497 174.281 354.259 162.391C353.483 161.262 352.647 160.013 351.871 158.824L337.901 137.066C336.826 135.461 335.692 133.797 334.498 132.073C331.095 127.257 327.573 122.264 326.08 116.854C324.588 111.206 323.692 102.824 328.051 95.096C332.886 86.5354 341.543 82.0174 347.99 79.7584C353.363 77.856 359.035 76.6076 364.527 75.4186C367.751 74.7053 371.094 73.9919 374.318 73.1002L375.87 72.684C383.154 70.7222 390.736 68.701 398.437 68.3443C403.452 67.4526 408.466 67.5715 413.362 68.7605C433.779 73.873 443.51 90.8752 442.257 119.351C441.421 137.72 436.704 162.035 418.735 173.389C410.377 178.68 400.407 180.642 393.661 181.712C390.974 182.128 388.527 182.306 386.198 182.306ZM356.169 161.083C365.184 174.162 374.975 182.247 393.303 179.453C403.87 177.848 411.332 175.351 417.541 171.487C434.675 160.667 439.212 137.126 439.988 119.291C441.182 92.0641 432.048 75.8348 412.825 71.0195C408.287 69.89 403.571 69.7711 398.855 70.6034H398.676C391.153 70.96 383.691 72.9813 376.467 74.8836L374.915 75.2998C371.632 76.1915 368.288 76.9048 365.005 77.6182C359.572 78.8072 354.02 80.0556 348.766 81.8985C342.737 84.0386 334.558 88.2 330.08 96.1661C326.08 103.24 326.916 110.969 328.349 116.2C329.722 121.253 333.125 126.068 336.409 130.705C337.662 132.429 338.797 134.094 339.871 135.759L353.841 157.517C354.617 158.765 355.393 159.954 356.169 161.083Z" fill="white"/>
<path d="M337.543 123.453C334.558 139.504 336.17 151.691 350.737 162.332C357.483 167.266 364.945 171.665 373.184 173.508C392.467 177.788 411.75 165.245 425.302 152.88C440.525 138.969 452.286 120.361 440.048 100.09C437.54 95.9877 434.257 92.5397 430.436 89.9834C424.586 84.6926 417.601 80.8284 410.795 76.9048C403.273 72.5651 396.168 67.3337 388.348 63.5885C381.184 60.1405 372.826 58.357 365.005 60.5566C358.139 62.4589 352.886 67.512 349.423 73.5758C345.841 79.7584 345.304 88.2 343.752 95.096C341.961 103.24 340.17 111.325 338.379 119.47C338.08 120.778 337.782 122.145 337.543 123.453Z" fill="#CEC4E1"/>
<path d="M367.333 161.202C364.945 161.202 362.975 159.241 362.975 156.863V153.415C362.975 151.037 364.945 149.075 367.333 149.075C369.721 149.075 371.691 151.037 371.691 153.415V156.863C371.751 159.3 369.781 161.202 367.333 161.202Z" fill="#832886"/>
<path d="M392.407 161.202C390.019 161.202 388.049 159.241 388.049 156.863V153.415C388.049 151.037 390.019 149.075 392.407 149.075C394.795 149.075 396.765 151.037 396.765 153.415V156.863C396.825 159.3 394.855 161.202 392.407 161.202Z" fill="#832886"/>
<path d="M400.228 77.7966H379.273C378.975 77.7966 378.736 77.5588 378.736 77.2616V57.287C378.736 52.1744 382.915 47.9536 388.109 47.9536H391.452C396.586 47.9536 400.825 52.115 400.825 57.287V77.2616C400.765 77.5588 400.526 77.7966 400.228 77.7966ZM379.81 76.6671H399.691V57.2275C399.691 52.7095 395.989 49.0237 391.452 49.0237H388.109C383.572 49.0237 379.87 52.7095 379.87 57.2275V76.6671H379.81Z" fill="#8E85BF"/>
<path d="M400.228 59.1893C399.153 59.1893 398.317 58.2976 398.317 57.287C398.317 53.5417 395.213 50.4504 391.452 50.4504H388.109C384.348 50.4504 381.243 53.5417 381.243 57.287C381.243 58.357 380.348 59.1893 379.333 59.1893C378.258 59.1893 377.422 58.2976 377.422 57.287C377.422 51.4016 382.258 46.5863 388.168 46.5863H391.512C397.422 46.5863 402.258 51.4016 402.258 57.287C402.138 58.2976 401.302 59.1893 400.228 59.1893Z" fill="#832886"/>
<path d="M385.541 78.9261H378.557C374.676 78.9261 371.512 75.7753 371.512 71.9112C371.512 68.0471 374.676 64.8963 378.557 64.8963H385.541C389.422 64.8963 392.586 68.0471 392.586 71.9112C392.586 75.7753 389.422 78.9261 385.541 78.9261ZM378.497 68.166C376.467 68.166 374.795 69.8305 374.795 71.8518C374.795 73.873 376.467 75.5375 378.497 75.5375H385.482C387.512 75.5375 389.183 73.873 389.183 71.8518C389.183 69.8305 387.512 68.166 385.482 68.166H378.497Z" fill="#832886"/>
<path d="M412.287 155.139H359.154C355.453 155.139 352.468 152.166 352.468 148.48V78.5694C352.468 74.8836 355.453 71.9112 359.154 71.9112H412.287C415.989 71.9112 418.974 74.8836 418.974 78.5694V148.421C419.033 152.107 415.989 155.139 412.287 155.139Z" fill="#FCFAF8"/>
<path d="M406.198 155.139C397.481 155.139 390.377 148.064 390.377 139.385V87.7244C390.377 79.045 397.481 71.9706 406.198 71.9706C414.914 71.9706 422.018 79.045 422.018 87.7244V139.385C422.018 148.064 414.914 155.139 406.198 155.139Z" fill="#8E85BF"/>
<path d="M406.198 155.495C405.66 155.495 405.183 155.02 405.183 154.485V72.684C405.183 72.149 405.66 71.6734 406.198 71.6734C406.735 71.6734 407.213 72.149 407.213 72.684V154.485C407.213 155.079 406.735 155.495 406.198 155.495Z" fill="#CEC4E1"/>
<path d="M406.257 125.474C404.168 125.474 402.496 123.809 402.496 121.729V102.884C402.496 100.803 404.168 99.1385 406.257 99.1385C408.347 99.1385 410.019 100.803 410.019 102.884V121.729C410.019 123.809 408.347 125.474 406.257 125.474Z" fill="#832886"/>
<path d="M382.318 103.656H361.482C361.124 103.656 360.826 103.359 360.826 103.003C360.826 102.646 361.124 102.349 361.482 102.349H382.318C382.676 102.349 382.974 102.646 382.974 103.003C382.974 103.359 382.676 103.656 382.318 103.656Z" fill="#832886"/>
<path d="M382.318 111.266H361.482C361.124 111.266 360.826 110.969 360.826 110.612C360.826 110.255 361.124 109.958 361.482 109.958H382.318C382.676 109.958 382.974 110.255 382.974 110.612C382.974 110.969 382.676 111.266 382.318 111.266Z" fill="#832886"/>
<path d="M382.318 118.875H361.482C361.124 118.875 360.826 118.578 360.826 118.221C360.826 117.865 361.124 117.567 361.482 117.567H382.318C382.676 117.567 382.974 117.865 382.974 118.221C382.974 118.578 382.676 118.875 382.318 118.875Z" fill="#832886"/>
<path d="M382.318 126.485H361.482C361.124 126.485 360.826 126.187 360.826 125.831C360.826 125.474 361.124 125.177 361.482 125.177H382.318C382.676 125.177 382.974 125.474 382.974 125.831C382.974 126.187 382.676 126.485 382.318 126.485Z" fill="#832886"/>
<path d="M382.318 134.094H361.482C361.124 134.094 360.826 133.797 360.826 133.44C360.826 133.083 361.124 132.786 361.482 132.786H382.318C382.676 132.786 382.974 133.083 382.974 133.44C382.974 133.797 382.676 134.094 382.318 134.094Z" fill="#832886"/>
<path d="M379.094 84.217H364.706C362.915 84.217 361.482 85.6437 361.482 87.4272V96.1661H382.318V87.4272C382.318 85.6437 380.885 84.217 379.094 84.217Z" fill="#8E85BF"/>
<path d="M382.318 91.3508H361.482C361.124 91.3508 360.826 91.0535 360.826 90.6968C360.826 90.3401 361.124 90.0429 361.482 90.0429H382.318C382.676 90.0429 382.974 90.3401 382.974 90.6968C382.974 91.0535 382.676 91.3508 382.318 91.3508Z" fill="#FCFAF8"/>
<path d="M335.063 220.975C336.881 219.559 337.202 216.944 335.78 215.134C334.358 213.323 331.732 213.004 329.914 214.42C328.096 215.835 327.775 218.451 329.197 220.261C330.619 222.072 333.245 222.391 335.063 220.975Z" fill="white"/>
<path d="M337.502 218.164C337.782 215.883 336.152 213.808 333.861 213.529C331.57 213.25 329.486 214.874 329.206 217.155C328.926 219.436 330.556 221.511 332.847 221.79C335.138 222.069 337.222 220.446 337.502 218.164Z" fill="#CEC4E1"/>
<path d="M333.364 220.71C333.244 220.71 333.125 220.71 333.006 220.71C332.17 220.591 331.453 220.175 330.976 219.58C330.498 218.926 330.259 218.154 330.319 217.321C330.498 215.657 332.05 214.468 333.722 214.646C334.558 214.765 335.274 215.181 335.752 215.776C336.229 216.43 336.468 217.202 336.408 218.035C336.289 218.867 335.871 219.58 335.274 220.056C334.677 220.472 334.02 220.71 333.364 220.71ZM333.364 215.122C332.11 215.122 330.976 216.073 330.856 217.321C330.797 217.975 330.976 218.629 331.394 219.164C331.812 219.699 332.409 220.056 333.065 220.115C333.722 220.175 334.379 219.996 334.916 219.58C335.453 219.164 335.811 218.57 335.871 217.916C335.931 217.262 335.752 216.608 335.334 216.073C334.916 215.538 334.319 215.181 333.662 215.122C333.543 215.122 333.423 215.122 333.364 215.122Z" fill="#832886"/>
<path d="M312.887 210.96C313.126 207.988 314.379 204.956 316.708 202.876C319.036 200.795 322.319 200.022 325.424 200.557C328.468 201.152 331.215 203.232 332.647 205.967C333.364 207.334 333.782 208.88 333.901 210.425C333.961 211.971 333.961 213.398 333.961 214.884C333.961 215.241 333.722 215.478 333.364 215.478C333.006 215.478 332.767 215.241 332.767 214.884C332.767 213.398 332.827 211.912 332.767 210.485C332.707 209.058 332.349 207.691 331.692 206.442C330.439 203.946 327.991 202.043 325.185 201.449C322.439 200.854 319.334 201.508 317.185 203.411C315.036 205.253 313.782 208.107 313.484 210.96C313.484 211.139 313.305 211.258 313.126 211.258C313.006 211.317 312.887 211.139 312.887 210.96Z" fill="white"/>
<path d="M322.857 224.396C322.797 224.396 322.678 224.396 322.618 224.396C322.319 224.396 322.081 224.158 322.081 223.861C322.081 223.563 322.26 223.385 322.618 223.326C322.678 223.326 322.797 223.326 322.857 223.326C329.901 223.326 331.394 219.461 331.453 219.283C331.573 218.986 331.871 218.867 332.11 218.986C332.409 219.105 332.528 219.402 332.409 219.64C332.349 219.878 330.677 224.396 322.857 224.396Z" fill="white"/>
<path d="M322.797 224.931C322.737 224.931 322.618 224.931 322.558 224.931C321.961 224.931 321.543 224.455 321.543 223.861C321.543 223.266 322.021 222.85 322.618 222.85C322.857 222.85 323.095 222.85 323.334 222.85C323.931 222.85 324.409 223.266 324.409 223.861C324.409 224.455 323.991 224.931 323.394 224.931C323.155 224.871 322.976 224.931 322.797 224.931Z" fill="#832886"/>
<path d="M323.633 228.081C324.767 228.022 325.901 227.784 326.916 227.368C327.931 226.952 328.886 226.357 329.424 225.466C329.543 225.228 329.841 225.169 330.08 225.287C330.319 225.406 330.379 225.704 330.259 225.941C330.259 225.941 330.259 225.941 330.259 226.001C329.424 227.011 328.289 227.665 327.155 227.963C326.021 228.319 324.827 228.438 323.633 228.438C323.513 228.438 323.454 228.319 323.454 228.26C323.454 228.141 323.513 228.081 323.633 228.081Z" fill="#832886"/>
<g opacity="0.7">
<g opacity="0.7">
<path opacity="0.7" d="M137.846 56.5736C133.608 56.5736 130.026 59.011 128.294 62.5778C126.981 61.0916 125.071 60.1405 122.921 60.1405C119.041 60.1405 115.877 63.2912 115.877 67.1553H127.22H130.026H148.473C148.473 61.3294 143.757 56.5736 137.846 56.5736Z" fill="white"/>
</g>
</g>
<g opacity="0.7">
<g opacity="0.7">
<path opacity="0.7" d="M163.696 125.652C160.294 125.652 157.368 127.614 155.995 130.468C154.921 129.279 153.428 128.506 151.697 128.506C148.533 128.506 145.966 131.062 145.966 134.213H155.1H157.368H172.293C172.293 129.516 168.413 125.652 163.696 125.652Z" fill="white"/>
</g>
</g>
<path d="M328.23 238.009C324.349 238.009 321.304 235.096 321.304 231.351C321.304 231.113 321.543 230.876 321.782 230.876C322.021 230.876 322.26 231.113 322.26 231.351C322.26 234.561 324.827 236.999 328.23 236.999C331.513 236.999 334.498 234.026 334.498 230.757C334.498 230.519 334.737 230.281 334.976 230.281C335.215 230.281 335.453 230.519 335.453 230.757C335.453 234.621 332.11 238.009 328.23 238.009Z" fill="#CEC4E1"/>
<path d="M318.678 241.457C318.678 241.16 318.678 240.803 318.558 240.506C318.499 240.209 318.32 239.912 318.14 239.614C318.021 239.496 317.902 239.317 317.723 239.198C317.305 238.842 316.767 238.723 316.23 238.663C315.872 238.663 315.454 238.723 315.096 238.901L315.036 238.782C314.857 238.842 314.678 238.961 314.499 239.079C314.379 239.198 314.2 239.317 314.081 239.436C313.902 239.555 313.782 239.852 313.663 240.09C313.603 240.328 313.484 240.566 313.305 240.685C313.185 240.922 313.424 241.279 313.126 241.517C313.066 241.636 313.364 241.873 313.066 241.992C313.066 242.052 313.126 242.111 313.126 242.171V242.23L313.185 242.349C312.947 242.527 313.305 242.765 313.305 242.944C313.364 243.003 313.364 243.003 313.424 243.062C313.424 243.122 313.364 243.122 313.305 243.181C313.364 243.241 313.424 243.3 313.484 243.3C313.484 243.36 313.544 243.419 313.603 243.479C313.663 243.597 313.782 243.657 313.902 243.776C313.961 243.835 313.961 243.835 314.021 243.895C314.081 243.895 314.141 243.835 314.141 243.835C314.26 243.954 314.439 243.776 314.558 243.895C314.678 243.954 314.797 244.014 314.917 244.073L314.976 243.954C315.036 243.954 315.096 244.014 315.155 244.014L315.215 243.895C315.454 243.954 315.633 244.014 315.872 244.014H315.932C316.17 244.014 316.469 244.014 316.708 243.954V243.835C316.887 243.776 317.126 243.716 317.305 243.657C317.543 243.538 317.782 243.419 317.961 243.241L318.021 243.181C318.081 243.122 318.2 243.003 318.26 242.884L318.14 242.825C318.26 242.706 318.32 242.527 318.439 242.349C318.499 242.171 318.558 242.052 318.618 241.873V241.755C318.618 241.636 318.678 241.576 318.678 241.457Z" fill="#EAEAF5"/>
<path d="M324.886 252.574C324.946 251.98 324.886 251.385 324.707 250.791C324.528 250.256 324.289 249.721 323.931 249.245C323.692 249.007 323.453 248.71 323.215 248.532C322.439 247.937 321.424 247.64 320.528 247.58C319.812 247.58 319.155 247.699 318.498 247.937L318.379 247.699C318.021 247.878 317.663 248.056 317.364 248.294C317.125 248.472 316.886 248.71 316.648 248.948C316.289 249.186 316.051 249.661 315.931 250.137C315.752 250.553 315.633 250.969 315.334 251.266C315.095 251.742 315.573 252.396 315.036 252.752C314.916 253.05 315.454 253.347 314.976 253.585C314.976 253.704 315.036 253.823 315.095 253.941V254.001L315.155 254.179C314.737 254.536 315.394 254.952 315.454 255.309C315.513 255.368 315.573 255.428 315.633 255.547C315.573 255.606 315.513 255.665 315.394 255.725C315.513 255.844 315.633 255.903 315.752 255.963C315.752 256.082 315.812 256.2 315.931 256.319C316.11 256.498 316.289 256.676 316.469 256.854C316.528 256.914 316.588 256.973 316.707 257.033C316.827 257.033 316.886 256.973 317.006 256.973C317.245 257.152 317.543 256.854 317.782 257.152C318.021 257.271 318.2 257.389 318.439 257.449L318.498 257.211C318.618 257.271 318.737 257.33 318.857 257.33L318.916 257.092C319.334 257.211 319.752 257.271 320.17 257.33H320.23C320.707 257.33 321.185 257.33 321.662 257.211L321.603 256.973C321.961 256.914 322.379 256.795 322.737 256.617C323.155 256.438 323.573 256.141 323.931 255.844L323.991 255.784C324.17 255.606 324.289 255.487 324.409 255.309L324.23 255.19C324.409 254.952 324.588 254.655 324.767 254.358C324.886 254.06 325.006 253.763 325.065 253.466L325.125 253.228C325.185 253.05 325.185 252.871 325.185 252.634L324.886 252.574Z" fill="#EAEAF5"/>
<path d="M338.2 241.992C338.259 241.576 338.2 241.22 338.08 240.803C337.961 240.447 337.782 240.09 337.543 239.733C337.423 239.555 337.244 239.377 337.065 239.258C336.528 238.842 335.871 238.663 335.274 238.663C334.797 238.663 334.379 238.723 333.961 238.901L333.901 238.782C333.662 238.901 333.424 239.02 333.244 239.139C333.065 239.258 332.946 239.377 332.767 239.555C332.528 239.733 332.409 240.031 332.289 240.328C332.17 240.625 332.11 240.863 331.871 241.101C331.692 241.398 332.05 241.873 331.692 242.052C331.633 242.23 331.931 242.468 331.633 242.587C331.633 242.646 331.692 242.765 331.692 242.825V242.884L331.752 243.003C331.453 243.241 331.871 243.479 331.931 243.716C331.991 243.776 332.05 243.835 332.05 243.835C332.05 243.895 331.991 243.895 331.871 243.954C331.931 244.014 332.05 244.073 332.11 244.132C332.11 244.192 332.17 244.311 332.23 244.37C332.349 244.489 332.468 244.608 332.588 244.727C332.647 244.786 332.707 244.786 332.707 244.846C332.767 244.846 332.827 244.786 332.886 244.786C333.065 244.905 333.244 244.727 333.364 244.905C333.483 244.965 333.662 245.024 333.782 245.084L333.841 244.965C333.901 245.024 334.021 245.024 334.08 245.024L334.14 244.905C334.379 244.965 334.677 245.024 334.976 245.084H335.035C335.334 245.084 335.692 245.084 335.991 245.024L335.931 244.846C336.17 244.786 336.409 244.727 336.647 244.608C336.946 244.489 337.185 244.311 337.423 244.073L337.483 244.014C337.603 243.895 337.722 243.776 337.782 243.657L337.662 243.538C337.782 243.36 337.901 243.181 338.02 243.003C338.14 242.825 338.2 242.646 338.259 242.409L338.319 242.23C338.319 242.111 338.379 241.992 338.379 241.873L338.2 241.992Z" fill="#EAEAF5"/>
<path d="M313.424 262.621C313.484 262.205 313.424 261.848 313.305 261.432C313.185 261.075 313.006 260.718 312.767 260.362C312.648 260.183 312.469 260.005 312.29 259.886C311.752 259.47 311.096 259.292 310.499 259.292C310.021 259.292 309.603 259.351 309.185 259.53L309.126 259.411C308.887 259.53 308.648 259.648 308.469 259.767C308.29 259.886 308.17 260.005 307.991 260.183C307.752 260.362 307.633 260.659 307.514 260.956C307.394 261.254 307.335 261.491 307.096 261.729C306.917 262.026 307.275 262.502 306.917 262.68C306.857 262.859 307.155 263.096 306.857 263.215C306.857 263.275 306.917 263.394 306.917 263.453V263.513L306.976 263.631C306.678 263.869 307.096 264.107 307.155 264.345C307.215 264.404 307.275 264.464 307.275 264.464C307.275 264.523 307.215 264.523 307.096 264.583C307.155 264.642 307.275 264.702 307.335 264.761C307.335 264.82 307.394 264.939 307.454 264.999C307.573 265.118 307.693 265.237 307.812 265.355C307.872 265.415 307.932 265.415 307.932 265.474C307.991 265.474 308.051 265.415 308.111 265.415C308.29 265.534 308.469 265.355 308.588 265.534C308.708 265.593 308.887 265.653 309.006 265.712L309.066 265.593C309.126 265.653 309.245 265.653 309.305 265.653L309.364 265.534C309.603 265.593 309.902 265.653 310.2 265.712H310.26C310.558 265.712 310.917 265.712 311.215 265.653L311.155 265.474C311.394 265.415 311.633 265.355 311.872 265.237C312.17 265.118 312.409 264.939 312.648 264.702L312.708 264.642C312.827 264.523 312.946 264.404 313.006 264.285L312.887 264.166C313.006 263.988 313.125 263.81 313.245 263.631C313.364 263.453 313.424 263.275 313.484 263.037L313.543 262.859C313.543 262.74 313.603 262.621 313.603 262.502L313.424 262.621Z" fill="#EAEAF5"/>
<path d="M321.663 268.744C321.782 268.863 321.961 268.744 322.08 268.803C322.498 268.566 322.976 268.447 323.513 268.387C323.692 268.268 323.931 268.209 324.17 268.09C324.767 267.674 325.304 267.198 325.782 266.723C326.2 266.307 326.558 265.831 326.916 265.474C326.916 265.237 326.856 264.999 326.797 264.761C326.677 264.404 326.498 264.048 326.259 263.691C326.14 263.513 325.961 263.334 325.782 263.215C325.245 262.799 324.588 262.621 323.991 262.621C323.513 262.621 323.095 262.68 322.677 262.859L322.618 262.74C322.379 262.859 322.14 262.978 321.961 263.097C321.782 263.215 321.663 263.334 321.483 263.513C321.245 263.691 321.125 263.988 321.006 264.285C320.886 264.583 320.827 264.821 320.588 265.058C320.409 265.356 320.767 265.831 320.409 266.009C320.349 266.188 320.648 266.426 320.349 266.544C320.349 266.604 320.409 266.723 320.409 266.782V266.842L320.469 266.961C320.17 267.198 320.588 267.436 320.648 267.674C320.707 267.733 320.767 267.793 320.767 267.793C320.767 267.852 320.707 267.852 320.588 267.912C320.648 267.971 320.767 268.031 320.827 268.09C320.827 268.15 320.886 268.268 320.946 268.328C321.066 268.447 321.185 268.566 321.304 268.685C321.364 268.744 321.424 268.744 321.424 268.803C321.543 268.803 321.603 268.744 321.663 268.744Z" fill="#EAEAF5"/>
<path d="M479.39 231.827C473.42 230.816 469.599 234.859 466.853 239.614C463.629 245.143 460.704 250.612 457.301 256.022C455.212 259.411 453.719 263.631 455.271 267.317C457.003 271.538 462.077 273.44 466.614 273.381C475.51 273.262 483.39 267.02 487.45 259.47C492.226 250.612 491.987 233.967 479.39 231.827Z" fill="#F5F5FA"/>
<path d="M49.0127 197.406C42.2666 198.774 35.6996 201.746 29.6699 206.026C24.4163 208.82 19.4015 212.447 14.7449 216.846C8.41669 222.91 -1.31441 232.6 0.954193 244.846C3.22279 257.033 13.4912 260.837 21.3716 262.859C29.7296 264.939 38.2667 265.118 46.6247 263.215C54.8633 261.313 62.9228 257.211 69.848 250.791C76.5941 244.489 83.6984 235.334 85.4297 223.98C89.549 197.525 61.8482 194.791 49.0127 197.406Z" fill="#F5F5FA"/>
<path d="M478.315 41.2359C478.017 36.7773 476.883 32.4971 474.793 29.0491C463.032 9.72842 429.72 -1.86397 407.989 0.692304C400.825 1.52458 393.661 4.43754 388.706 9.66897C386.497 11.9875 384.706 14.841 384.288 18.0512C383.81 21.4992 385.004 25.1849 387.452 27.6818C392.527 32.7943 401.422 31.2487 407.869 32.2593C416.347 33.6266 423.033 37.1935 428.944 43.495C435.988 51.0449 440.346 61.9834 449.48 67.4526C468.107 78.5099 479.45 58.357 478.315 41.2359Z" fill="#F5F5FA"/>
</svg>
