<svg width="36" height="36" viewBox="0 0 36 36" fill="none" xmlns="http://www.w3.org/2000/svg">
<path d="M18 0C8.07508 0 0 8.07438 0 18C0 27.9256 8.07508 36 18 36C27.9249 36 36 27.9256 36 18C36 8.07438 27.9249 0 18 0ZM18 34.6154C8.83869 34.6154 1.38462 27.1613 1.38462 18C1.38462 8.83869 8.83869 1.38462 18 1.38462C27.1613 1.38462 34.6154 8.83869 34.6154 18C34.6154 27.1613 27.1613 34.6154 18 34.6154Z" fill="#0084F8"/>
<path d="M26.9999 17.3077H8.99992C8.61777 17.3077 8.30762 17.6171 8.30762 18C8.30762 18.3828 8.61777 18.6923 8.99992 18.6923H26.9999C27.3821 18.6923 27.6922 18.3828 27.6922 18C27.6922 17.6171 27.3821 17.3077 26.9999 17.3077Z" fill="#0084F8"/>
</svg>
