<svg width="36" height="36" viewBox="0 0 36 36" fill="none" xmlns="http://www.w3.org/2000/svg">
<path d="M18 0C8.07497 0 0 8.07497 0 18C0 27.925 8.07497 36 18 36C27.925 36 36 27.925 36 18C36 8.07497 27.925 0 18 0ZM18 34.5C8.90184 34.5 1.49998 27.0982 1.49998 18C1.49998 8.90184 8.90184 1.49998 18 1.49998C27.0982 1.49998 34.5 8.90184 34.5 18C34.5 27.0982 27.0982 34.5 18 34.5Z" fill="#0084F8"/>
<path d="M27.7501 17.2499H18.7501V8.24995C18.7501 7.83538 18.4146 7.49992 18 7.49992C17.5855 7.49992 17.25 7.83538 17.25 8.24995V17.2499H8.25002C7.83546 17.2499 7.5 17.5854 7.5 18C7.5 18.4145 7.83546 18.75 8.25002 18.75H17.25V27.75C17.25 28.1645 17.5855 28.5 18 28.5C18.4146 28.5 18.7501 28.1645 18.7501 27.75V18.75H27.7501C28.1646 18.75 28.5001 18.4145 28.5001 18C28.5001 17.5854 28.1646 17.2499 27.7501 17.2499Z" fill="#0084F8"/>
</svg>
