<svg width="24" height="23" viewBox="0 0 24 23" fill="none" xmlns="http://www.w3.org/2000/svg">
<path d="M23.0769 11.3097C23.0769 5.20202 18.1082 0.232819 12 0.232819C5.89185 0.232819 0.923096 5.20202 0.923096 11.3097C0.923096 14.4331 2.2276 17.2531 4.31415 19.2687C4.363 19.3324 4.42086 19.3839 4.48858 19.4273C6.46511 21.2577 9.09997 22.3867 12 22.3867C14.9001 22.3867 17.5349 21.2577 19.5115 19.4273C19.5792 19.3839 19.637 19.3324 19.6859 19.2687C21.7724 17.2531 23.0769 14.4331 23.0769 11.3097ZM12 1.61743C17.3447 1.61743 21.6923 5.96554 21.6923 11.3097C21.6923 13.5759 20.9047 15.6582 19.5967 17.3105C18.9962 15.3741 17.282 13.8581 14.9553 13.1606C16.2233 12.243 17.0526 10.7563 17.0526 9.07642C17.0526 6.29412 14.7864 4.03059 12 4.03059C9.21366 4.03059 6.94743 6.29412 6.94743 9.07642C6.94743 10.7563 7.77676 12.243 9.0447 13.1606C6.71807 13.8581 5.00381 15.3741 4.40334 17.3105C3.09535 15.6582 2.30771 13.5759 2.30771 11.3097C2.30771 5.96554 6.65537 1.61743 12 1.61743ZM8.33205 9.07642C8.33205 7.05764 9.97718 5.41521 12 5.41521C14.0229 5.41521 15.668 7.05764 15.668 9.07642C15.668 11.0952 14.0229 12.7376 12 12.7376C9.97718 12.7376 8.33205 11.0952 8.33205 9.07642ZM5.56688 18.5393C5.775 16.0008 8.46681 14.1222 12 14.1222C15.5332 14.1222 18.225 16.0008 18.4332 18.5393C16.7198 20.0656 14.4699 21.002 12 21.002C9.53012 21.002 7.28024 20.0656 5.56688 18.5393Z" fill="white"/>
</svg>
