<svg width="120" height="25" viewBox="0 0 120 25" fill="none" xmlns="http://www.w3.org/2000/svg">
<g clip-path="url(#clip0)">
<path d="M5.1128 12.3546V24.5571H0V13.3308C0 7.87481 2.87879 5.16687 8.59608 5.16687C11.1718 5.16687 13.1412 5.70846 14.5797 6.79331C16.0182 5.74524 17.9876 5.24042 20.5633 5.24042C26.2824 5.24042 29.1209 7.95003 29.0841 13.4044V24.6407H26.4716C24.8053 24.532 23.973 23.7731 23.973 22.2553V12.4265C23.8591 10.439 22.7237 9.46448 20.4897 9.46448C18.2557 9.46448 17.1186 10.4407 17.0818 12.4265V24.5654H12.0005V12.363C11.8866 10.3755 10.7512 9.40096 8.51724 9.40096C6.28324 9.40096 5.15835 10.3755 5.1128 12.3546Z" fill="black"/>
<path d="M40.9361 24.9983C34.8771 24.8178 31.8477 21.458 31.8477 14.9555C31.8477 8.45314 34.9157 5.20194 41.0114 5.16516C47.3735 5.16516 50.3645 8.88608 49.986 16.3647H37.0358C37.225 19.2916 38.5514 20.7726 41.0114 20.7726C42.1854 20.7726 43.2892 20.3029 44.2687 19.4003C44.4837 19.1748 44.7476 18.9966 45.0419 18.8779C45.3363 18.7593 45.6542 18.7031 45.9735 18.7132H49.6846C48.586 22.7584 45.8597 24.9983 40.9361 24.9983ZM37.1111 12.9329H44.6454C44.3423 10.4039 43.093 9.10338 40.9343 9.10338C38.7757 9.10338 37.4896 10.4039 37.1111 12.9329Z" fill="black"/>
<path d="M57.8983 8.88607H57.3726V19.4721C57.3726 20.2661 57.865 20.7007 58.8497 20.7007H60.4021V24.3498C58.6376 24.5 56.8621 24.4883 55.1001 24.3147C53.206 24.1341 52.2966 23.0142 52.3352 20.8829V0H54.9476C56.2723 0 57.3709 1.15673 57.3709 2.42043V5.45433H60.4003V6.50241C60.4065 6.81734 60.346 7.13023 60.2224 7.42233C60.0988 7.71442 59.9147 7.9797 59.6811 8.20227C59.4474 8.42485 59.1691 8.60014 58.8628 8.71764C58.5564 8.83514 58.2284 8.89242 57.8983 8.88607Z" fill="black"/>
<path d="M62.5186 14.7031C62.6692 8.51834 66.1157 5.45435 72.8195 5.45435H73.5396V10.4406H71.8348C69.0313 10.4406 67.6296 11.8498 67.6296 14.6313V24.5654H62.5186V14.7031Z" fill="black"/>
<path d="M93.949 15.101C93.949 21.677 90.881 25 84.822 25C78.7631 25 75.7354 21.6753 75.7354 15.101C75.7354 8.45318 78.7648 5.16687 84.8238 5.16687C90.8828 5.16687 93.949 8.45318 93.949 15.101ZM80.8464 15.101C80.8849 18.8219 82.2096 20.7008 84.7852 20.7008C87.3609 20.7008 88.64 18.75 88.6856 14.9573C88.6856 11.2363 87.3977 9.39427 84.8308 9.39427C82.1728 9.3926 80.8517 11.3065 80.8517 15.101H80.8464Z" fill="black"/>
<path d="M110.876 24.5654C109.21 24.4568 108.378 23.6979 108.378 22.1818V12.3546C108.264 10.3671 107.129 9.3926 104.895 9.3926C102.661 9.3926 101.527 10.3755 101.485 12.3546V24.5571H96.3721V13.3308C96.3721 7.87481 99.2509 5.16687 104.968 5.16687C110.685 5.16687 113.489 7.87648 113.45 13.3308V24.5654H110.876Z" fill="black"/>
<path d="M120.002 20.7726V24.5654H115.72V22.1817C115.72 21.2423 116.245 20.7726 117.347 20.7726H120.002Z" fill="#28B446"/>
</g>
<defs>
<clipPath id="clip0">
<rect width="120" height="25" fill="white"/>
</clipPath>
</defs>
</svg>
