<svg width="120" height="25" viewBox="0 0 120 25" fill="none" xmlns="http://www.w3.org/2000/svg">
<g clip-path="url(#clip0)">
<path d="M5.1128 12.3545V24.557H0V13.3307C0 7.87469 2.87879 5.16675 8.59608 5.16675C11.1718 5.16675 13.1412 5.70834 14.5797 6.79319C16.0182 5.74511 17.9876 5.2403 20.5633 5.2403C26.2824 5.2403 29.1209 7.94991 29.0841 13.4042V24.6405H26.4716C24.8053 24.5319 23.973 23.773 23.973 22.2552V12.4264C23.8591 10.4389 22.7237 9.46435 20.4897 9.46435C18.2557 9.46435 17.1186 10.4405 17.0818 12.4264V24.5653H12.0005V12.3629C11.8866 10.3754 10.7512 9.40084 8.51724 9.40084C6.28324 9.40084 5.15835 10.3754 5.1128 12.3545Z" fill="white"/>
<path d="M40.9356 24.9982C34.8766 24.8177 31.8472 21.4578 31.8472 14.9554C31.8472 8.45302 34.9152 5.20181 41.0109 5.16504C47.373 5.16504 50.364 8.88596 49.9855 16.3646H37.0353C37.2245 19.2915 38.5509 20.7725 41.0109 20.7725C42.1849 20.7725 43.2888 20.3028 44.2682 19.4001C44.4833 19.1747 44.7471 18.9964 45.0415 18.8778C45.3358 18.7592 45.6537 18.703 45.9731 18.7131H49.6841C48.5855 22.7583 45.8592 24.9982 40.9356 24.9982ZM37.1106 12.9328H44.6449C44.3418 10.4037 43.0925 9.10326 40.9339 9.10326C38.7752 9.10326 37.4891 10.4037 37.1106 12.9328Z" fill="white"/>
<path d="M57.8983 8.88607H57.3726V19.4721C57.3726 20.2661 57.865 20.7007 58.8497 20.7007H60.4021V24.3498C58.6376 24.5 56.8621 24.4883 55.1001 24.3147C53.206 24.1341 52.2966 23.0142 52.3352 20.8829V0H54.9476C56.2723 0 57.3709 1.15673 57.3709 2.42043V5.45433H60.4003V6.50241C60.4065 6.81734 60.346 7.13023 60.2224 7.42233C60.0988 7.71442 59.9147 7.9797 59.6811 8.20227C59.4474 8.42485 59.1691 8.60014 58.8628 8.71764C58.5564 8.83514 58.2284 8.89242 57.8983 8.88607Z" fill="white"/>
<path d="M62.5186 14.7031C62.6692 8.51834 66.1157 5.45435 72.8195 5.45435H73.5396V10.4406H71.8348C69.0313 10.4406 67.6296 11.8498 67.6296 14.6313V24.5654H62.5186V14.7031Z" fill="white"/>
<path d="M93.9488 15.1009C93.9488 21.6768 90.8808 24.9999 84.8218 24.9999C78.7628 24.9999 75.7351 21.6752 75.7351 15.1009C75.7351 8.45305 78.7646 5.16675 84.8235 5.16675C90.8825 5.16675 93.9488 8.45305 93.9488 15.1009ZM80.8461 15.1009C80.8847 18.8218 82.2093 20.7007 84.785 20.7007C87.3607 20.7007 88.6398 18.7499 88.6853 14.9571C88.6853 11.2362 87.3975 9.39415 84.8306 9.39415C82.1725 9.39248 80.8514 11.3064 80.8514 15.1009H80.8461Z" fill="white"/>
<path d="M110.876 24.5653C109.21 24.4567 108.378 23.6978 108.378 22.1817V12.3545C108.264 10.367 107.129 9.39248 104.895 9.39248C102.661 9.39248 101.527 10.3754 101.485 12.3545V24.557H96.3721V13.3307C96.3721 7.87469 99.2509 5.16675 104.968 5.16675C110.685 5.16675 113.489 7.87636 113.45 13.3307V24.5653H110.876Z" fill="white"/>
<path d="M120.002 20.7727V24.5655H115.719V22.1818C115.719 21.2424 116.245 20.7727 117.347 20.7727H120.002Z" fill="#28B446"/>
</g>
<defs>
<clipPath id="clip0">
<rect width="120" height="25" fill="white"/>
</clipPath>
</defs>
</svg>
