<svg width="25" height="17" viewBox="0 0 25 17" fill="none" xmlns="http://www.w3.org/2000/svg">
<path d="M2.34699 8.35872L6.3385 4.48494C7.7116 3.15233 9.30672 2.11216 11.0794 1.39326C12.8521 0.674357 14.7205 0.309753 16.6332 0.309753H25V16.3098H0V13.9085C0 11.8291 0.855446 9.80625 2.34699 8.35872ZM19.7098 14.8437V6.46717H17.1875V14.8437H19.7098ZM23.5352 10.5759H21.1746V14.8437H23.5352V10.5759ZM23.5352 6.46717H21.1746V9.10988H23.5352V6.46717ZM23.5352 5.00112V1.7758H16.6332C14.9101 1.7758 13.2267 2.10414 11.6295 2.75184C10.2789 3.2997 9.0435 4.05506 7.94582 5.00112H12.2879L12.1851 5.82501C12.1786 5.87655 12.0152 7.10322 10.9724 8.30069C9.29089 10.2318 6.64215 10.6372 4.71649 10.6372H2.38838C2.07348 11.1538 1.83392 11.7142 1.6777 12.2987H3.125V13.7648H1.46675C1.46561 13.8127 1.46484 14.8437 1.46484 14.8437H15.7227V5.00112H23.5352ZM6.4003 6.46717L3.61404 9.17115H4.71649C8.52833 9.17115 9.94072 7.51326 10.4525 6.46717H6.4003Z" fill="black"/>
</svg>
