<svg width="25" height="17" viewBox="0 0 25 17" fill="none" xmlns="http://www.w3.org/2000/svg">
<path d="M22.653 8.35872L18.6615 4.48494C17.2884 3.15233 15.6933 2.11216 13.9206 1.39326C12.1479 0.674357 10.2795 0.309753 8.36678 0.309753H0V16.3098H25V13.9085C25 11.8291 24.1446 9.80625 22.653 8.35872ZM5.29022 14.8437V6.46717H7.8125V14.8437H5.29022ZM1.46484 10.5759H3.82538V14.8437H1.46484V10.5759ZM1.46484 6.46717H3.82538V9.10988H1.46484V6.46717ZM1.46484 5.00112V1.7758H8.36678C10.0899 1.7758 11.7733 2.10414 13.3705 2.75184C14.7211 3.2997 15.9565 4.05506 17.0542 5.00112H12.7121L12.8149 5.82501C12.8214 5.87655 12.9848 7.10322 14.0276 8.30069C15.7091 10.2318 18.3578 10.6372 20.2835 10.6372H22.6116C22.9265 11.1538 23.1661 11.7142 23.3223 12.2987H21.875V13.7648H23.5332C23.5344 13.8127 23.5352 14.8437 23.5352 14.8437H9.27734V5.00112H1.46484ZM18.5997 6.46717L21.386 9.17115H20.2835C16.4717 9.17115 15.0593 7.51326 14.5475 6.46717H18.5997Z" fill="black"/>
</svg>
