<svg width="16" height="14" viewBox="0 0 16 14" fill="none" xmlns="http://www.w3.org/2000/svg">
<path d="M0.899375 8.25473L0.8744 8.24926L11.5809 8.24926L8.21515 11.6224C8.05034 11.7871 7.95993 12.0102 7.95993 12.2443C7.95993 12.4785 8.05034 12.7 8.21515 12.8651L8.73886 13.389C8.90354 13.5537 9.12299 13.6448 9.357 13.6448C9.59115 13.6448 9.81073 13.5544 9.97541 13.3897L15.7449 7.62071C15.9102 7.45538 16.0006 7.23515 16 7.00087C16.0006 6.7653 15.9102 6.54494 15.7449 6.37986L9.97541 0.610369C9.81073 0.445816 9.59128 0.35528 9.357 0.35528C9.12299 0.35528 8.90354 0.445946 8.73886 0.610369L8.21515 1.13434C8.05034 1.29876 7.95993 1.51834 7.95993 1.75248C7.95993 1.9865 8.05034 2.1945 8.21515 2.35905L11.6189 5.75105L0.887408 5.75105C0.405197 5.75105 -6.97564e-06 6.16666 -7.01777e-06 6.64861L-7.08256e-06 7.38968C-7.12469e-06 7.87164 0.417164 8.25473 0.899375 8.25473Z" fill="#518EF8"/>
</svg>
