<svg width="17" height="17" viewBox="0 0 17 17" fill="none" xmlns="http://www.w3.org/2000/svg">
<path d="M8.36621 16.3098C3.9478 16.3098 0.366211 12.7282 0.366211 8.30975C0.366211 3.89134 3.9478 0.309753 8.36621 0.309753C12.7846 0.309753 16.3662 3.89134 16.3662 8.30975C16.3662 12.7282 12.7846 16.3098 8.36621 16.3098ZM8.36621 1.18005C4.44989 1.18005 1.2365 4.39343 1.2365 8.30975C1.2365 12.2261 4.44989 15.4395 8.36621 15.4395C12.2825 15.4395 15.4959 12.2261 15.4959 8.30975C15.4959 4.39343 12.2825 1.18005 8.36621 1.18005Z" fill="#134563"/>
<path d="M7.89746 11.6236H8.8347V12.5608H7.89746V11.6236Z" fill="#134563"/>
<path d="M8.63386 10.6863H8.09829L7.89746 6.90388V4.05869H8.8347V6.90388L8.63386 10.6863Z" fill="#134563"/>
</svg>
