<svg width="14" height="16" viewBox="0 0 14 16" fill="none" xmlns="http://www.w3.org/2000/svg">
<path d="M6.54694 0.816326C9.71429 0.816326 12.2776 3.42857 12.2776 6.62857C12.2776 8.19592 11.6898 9.64898 10.4816 11.0857C9.02857 12.8163 7.36327 14.2694 6.54694 14.9388C5.64898 14.1714 3.72245 12.4735 2.62857 11.102C1.73061 9.97551 0.816327 8.57143 0.816327 6.62857C0.816327 3.42857 3.37959 0.816326 6.54694 0.816326ZM6.54694 0C2.92245 0 0 2.97143 0 6.62857C0 8.70204 0.914286 10.2694 1.99184 11.6082C3.5102 13.551 6.54694 16 6.54694 16C6.54694 16 9.02857 14.1061 11.1184 11.6082C12.2286 10.2857 13.1102 8.66939 13.1102 6.62857C13.0939 2.97143 10.1714 0 6.54694 0Z" fill="#518EF8" fill-opacity="0.5"/>
<path d="M6.54682 5.02855C7.4611 5.02855 8.21212 5.77957 8.21212 6.69385C8.21212 7.60814 7.4611 8.35916 6.54682 8.35916C5.63253 8.35916 4.88151 7.60814 4.88151 6.69385C4.88151 5.77957 5.63253 5.02855 6.54682 5.02855ZM6.54682 4.21222C5.17539 4.21222 4.06519 5.32242 4.06519 6.69385C4.06519 8.06528 5.17539 9.17548 6.54682 9.17548C7.91825 9.17548 9.02845 8.06528 9.02845 6.69385C9.02845 5.32242 7.91825 4.21222 6.54682 4.21222Z" fill="#518EF8" fill-opacity="0.5"/>
</svg>
