<svg width="60" height="60" viewBox="0 0 60 60" fill="none" xmlns="http://www.w3.org/2000/svg">
<path d="M59.481 56.6044L44.8969 42.1095C48.8091 37.6393 51.1776 31.8069 51.1776 25.4323C51.1776 11.4002 39.6939 0 25.5888 0C11.4704 0 0 11.4135 0 25.4323C0 39.4512 11.4837 50.8646 25.5888 50.8646C32.0027 50.8646 37.8709 48.5105 42.3686 44.6223L56.9528 59.1172C57.2987 59.4611 57.7645 59.6462 58.2169 59.6462C58.6693 59.6462 59.1351 59.4743 59.481 59.1172C60.173 58.4295 60.173 57.2921 59.481 56.6044ZM3.57951 25.4323C3.57951 13.3708 13.4531 3.57084 25.5755 3.57084C37.7112 3.57084 47.5715 13.384 47.5715 25.4323C47.5715 37.4806 37.7112 47.307 25.5755 47.307C13.4531 47.307 3.57951 37.4938 3.57951 25.4323Z" fill="#518EF8"/>
</svg>
