<svg width="60" height="60" viewBox="0 0 60 60" fill="none" xmlns="http://www.w3.org/2000/svg">
<path d="M30 0C13.4585 0 0 13.4573 0 30C0 46.5427 13.4585 60 30 60C46.5415 60 60 46.5427 60 30C60 13.4573 46.5415 0 30 0ZM30 57.6923C14.7312 57.6923 2.30769 45.2688 2.30769 30C2.30769 14.7312 14.7312 2.30769 30 2.30769C45.2688 2.30769 57.6923 14.7312 57.6923 30C57.6923 45.2688 45.2688 57.6923 30 57.6923Z" fill="#518EF8"/>
<path d="M44.1366 17.6954L26.4032 37.6454L15.7197 29.0988C15.2236 28.7008 14.4955 28.7827 14.0986 29.2788C13.7005 29.7773 13.7813 30.5031 14.2786 30.9011L25.817 40.1319C26.0293 40.3015 26.2843 40.3846 26.5382 40.3846C26.8566 40.3846 27.174 40.2531 27.4013 39.9969L45.8628 19.2277C46.2863 18.7523 46.2436 18.0219 45.767 17.5996C45.2893 17.175 44.5613 17.2177 44.1366 17.6954Z" fill="#28B446"/>
</svg>
