<svg width="60" height="60" viewBox="0 0 60 60" fill="none" xmlns="http://www.w3.org/2000/svg">
<path d="M51 16.8998V0H9V16.8998H0V50.6993H6V53.6816H9V59.6462H51V53.6816H54V50.6993H60V16.8998H51ZM11 1.98821H49V16.8998H11V1.98821ZM9 18.888H51H58V34.7936H2V18.888H9ZM8 51.6934V49.7052V48.7111V44.7347C8 44.1849 7.553 43.7406 7 43.7406C6.447 43.7406 6 44.1849 6 44.7347V48.7111H2V36.7818H9V51.6934H8ZM49 57.658H11V53.6816V36.7818H49V53.6816V57.658ZM54 48.7111V44.7347C54 44.1849 53.553 43.7406 53 43.7406C52.447 43.7406 52 44.1849 52 44.7347V48.7111V49.7052V51.6934H51V36.7818H58V48.7111H54Z" fill="#518EF8"/>
</svg>
