<svg width="32" height="16" viewBox="0 0 32 16" fill="none" xmlns="http://www.w3.org/2000/svg">
<path d="M18.5015 9.20355H13.3097C11.0914 9.20355 9.25073 11.0443 9.25073 13.2625V16H9.9587V13.2625C9.9587 11.4218 11.469 9.91152 13.3097 9.91152H18.5015C20.3422 9.91152 21.8525 11.4218 21.8525 13.2625V16H22.5605V13.2625C22.5605 10.9971 20.7198 9.20355 18.5015 9.20355Z" fill="#518EF8" fill-opacity="0.5"/>
<path d="M15.9058 8.21239C18.1712 8.21239 20.0119 6.37168 20.0119 4.10619C20.0119 1.84071 18.1712 0 15.9058 0C13.6403 0 11.7996 1.84071 11.7996 4.10619C11.7996 6.37168 13.6403 8.21239 15.9058 8.21239ZM15.9058 0.755163C17.7937 0.755163 19.304 2.26549 19.304 4.15339C19.304 6.0413 17.7937 7.55162 15.9058 7.55162C14.0178 7.55162 12.5075 6.0413 12.5075 4.15339C12.5075 2.26549 14.0178 0.755163 15.9058 0.755163Z" fill="#518EF8" fill-opacity="0.5"/>
<path d="M28.3188 10.1947H23.9766C23.835 10.1947 23.7406 10.1947 23.6462 10.1947C23.7878 10.4307 23.8822 10.6195 23.9766 10.9027H28.3188C29.8291 10.9027 31.1035 12.1298 31.1035 13.6873V16H31.8114V13.6873C31.8114 11.7522 30.2539 10.1947 28.3188 10.1947Z" fill="#518EF8" fill-opacity="0.5"/>
<path d="M26.1477 9.48678C28.0828 9.48678 29.6403 7.92925 29.6403 5.99415C29.6403 4.05905 28.0828 2.50153 26.1477 2.50153C24.2126 2.50153 22.655 4.05905 22.655 5.99415C22.655 7.92925 24.2126 9.48678 26.1477 9.48678ZM26.1477 3.20949C27.7052 3.20949 28.9323 4.48383 28.9323 5.99415C28.9323 7.50447 27.658 8.77881 26.1477 8.77881C24.6373 8.77881 23.363 7.50447 23.363 5.99415C23.363 4.48383 24.5901 3.20949 26.1477 3.20949Z" fill="#518EF8" fill-opacity="0.5"/>
<path d="M3.49262 10.1947C1.55752 10.1947 0 11.7522 0 13.6873V16H0.707965V13.6873C0.707965 12.177 1.9351 10.9027 3.49262 10.9027H7.83481C7.9292 10.6667 8.0708 10.4307 8.16519 10.1947C8.0708 10.1947 7.9292 10.1947 7.83481 10.1947H3.49262Z" fill="#518EF8" fill-opacity="0.5"/>
<path d="M5.66377 2.50153C3.72866 2.50153 2.17114 4.05905 2.17114 5.99415C2.17114 7.92925 3.72866 9.48678 5.66377 9.48678C7.59887 9.48678 9.15639 7.92925 9.15639 5.99415C9.15639 4.05905 7.59887 2.50153 5.66377 2.50153ZM5.66377 8.77881C4.10625 8.77881 2.87911 7.50447 2.87911 5.99415C2.87911 4.48383 4.15344 3.20949 5.66377 3.20949C7.17409 3.20949 8.44843 4.48383 8.44843 5.99415C8.44843 7.50447 7.22129 8.77881 5.66377 8.77881Z" fill="#518EF8" fill-opacity="0.5"/>
</svg>
