<svg width="51" height="60" viewBox="0 0 51 60" fill="none" xmlns="http://www.w3.org/2000/svg">
<path d="M50.3517 15.3578C50.3209 13.7475 50.2915 12.2262 50.2915 10.7544C50.2915 9.60142 49.3514 8.66665 48.1913 8.66665C39.2096 8.66665 32.3713 6.10064 26.6712 0.591152C25.8557 -0.19719 24.5581 -0.196912 23.743 0.591152C18.0435 6.10064 11.2062 8.66665 2.22509 8.66665C1.06525 8.66665 0.124938 9.60142 0.124938 10.7544C0.124938 12.2264 0.0958161 13.7483 0.0647338 15.3589C-0.223127 30.3452 -0.617395 50.8697 24.5192 59.5312C24.7421 59.608 24.9745 59.6464 25.2069 59.6464C25.4394 59.6464 25.6721 59.608 25.8947 59.5312C51.0332 50.8694 50.6395 30.3444 50.3517 15.3578ZM25.2072 55.3431C3.64928 47.5579 3.97522 30.5036 4.26448 15.4385C4.28184 14.5344 4.29865 13.6581 4.31041 12.799C12.7222 12.4461 19.4489 9.91208 25.2072 4.92537C30.9661 9.91208 37.6939 12.4464 46.1063 12.799C46.118 13.6578 46.1348 14.5336 46.1522 15.4372C46.4412 30.5028 46.7668 47.5577 25.2072 55.3431Z" fill="#518EF8"/>
<path d="M32.4396 22.5704L22.3031 32.6465L17.9776 28.3466C17.1574 27.5315 15.8276 27.5315 15.0077 28.3466C14.1875 29.1622 14.1875 30.4839 15.0077 31.2992L20.8181 37.0754C21.2281 37.4829 21.7657 37.6867 22.3031 37.6867C22.8404 37.6867 23.3781 37.4829 23.788 37.0754L35.4092 25.5231C36.2296 24.7077 36.2296 23.3857 35.4094 22.5707C34.5895 21.7553 33.2597 21.755 32.4396 22.5704Z" fill="#28B446"/>
</svg>
