<svg width="18" height="16" viewBox="0 0 18 16" fill="none" xmlns="http://www.w3.org/2000/svg">
<path d="M16 2.37037H14.2222V0.592593C14.2222 0.265046 13.9572 0 13.6296 0C13.3021 0 13.037 0.265046 13.037 0.592593V2.37037H4.74074V0.592593C4.74074 0.265046 4.47569 0 4.14815 0C3.8206 0 3.55556 0.265046 3.55556 0.592593V2.37037H1.77778C0.797454 2.37037 0 3.16782 0 4.14815V14.2222C0 15.2025 0.797454 16 1.77778 16H16C16.9803 16 17.7778 15.2025 17.7778 14.2222V4.14815C17.7778 3.16782 16.9803 2.37037 16 2.37037ZM1.77778 3.55556H3.55556V4.14815C3.55556 4.47569 3.8206 4.74074 4.14815 4.74074C4.47569 4.74074 4.74074 4.47569 4.74074 4.14815V3.55556H13.037V4.14815C13.037 4.47569 13.3021 4.74074 13.6296 4.74074C13.9572 4.74074 14.2222 4.47569 14.2222 4.14815V3.55556H16C16.327 3.55556 16.5926 3.82118 16.5926 4.14815V5.33333H1.18519V4.14815C1.18519 3.82118 1.45081 3.55556 1.77778 3.55556ZM16 14.8148H1.77778C1.45081 14.8148 1.18519 14.5492 1.18519 14.2222V6.51852H16.5926V14.2222C16.5926 14.5492 16.327 14.8148 16 14.8148Z" fill="#518EF8" fill-opacity="0.5"/>
<path d="M11.4058 7.31366L7.67493 11.5776L6.34507 10.2477C6.11359 10.0162 5.73859 10.0162 5.50711 10.2477C5.27563 10.4792 5.27563 10.8542 5.50711 11.0857L7.28489 12.8634C7.396 12.9745 7.54704 13.037 7.70387 13.037C7.71023 13.037 7.71718 13.037 7.72354 13.0365C7.88732 13.0313 8.04183 12.9583 8.15005 12.8345L12.2982 8.09376C12.5135 7.84781 12.4886 7.47338 12.2421 7.25753C11.9967 7.04167 11.6217 7.06656 11.4058 7.31366Z" fill="#518EF8" fill-opacity="0.5"/>
</svg>
