<svg width="12" height="16" viewBox="0 0 12 16" fill="none" xmlns="http://www.w3.org/2000/svg">
<path d="M9.56893 6.52802V3.96802C9.56893 2.00002 7.96893 0.400024 6.00093 0.400024C4.03293 0.400024 2.43293 2.00002 2.43293 3.96802V6.52802C1.40893 7.48802 0.75293 8.84802 0.75293 10.368C0.75293 13.264 3.10493 15.616 6.00093 15.616C8.89693 15.616 11.2489 13.264 11.2489 10.368C11.2489 8.84802 10.5929 7.47202 9.56893 6.52802ZM3.74493 3.96802C3.74493 2.72002 4.75293 1.71202 6.00093 1.71202C7.24893 1.71202 8.25693 2.72002 8.25693 3.96802V5.63202C7.56893 5.31202 6.81693 5.12002 6.00093 5.12002C5.18493 5.12002 4.43293 5.31202 3.74493 5.63202V3.96802ZM6.00093 14.288C3.82493 14.288 2.06493 12.528 2.06493 10.352C2.06493 8.17602 3.82493 6.41602 6.00093 6.41602C8.17693 6.41602 9.93693 8.17602 9.93693 10.352C9.93693 12.528 8.17693 14.288 6.00093 14.288Z" fill="white"/>
<path d="M7.05708 8.94399L5.61708 10.384L4.92908 9.69599C4.67308 9.43999 4.25708 9.43999 4.00108 9.69599C3.74508 9.95199 3.74508 10.368 4.00108 10.624L5.13708 11.76C5.26508 11.888 5.42508 11.952 5.60108 11.952C5.76108 11.952 5.93708 11.888 6.06508 11.76L7.96908 9.85599C8.22508 9.59999 8.22508 9.18399 7.96908 8.92799C7.72908 8.68799 7.31308 8.68799 7.05708 8.94399Z" fill="white"/>
</svg>
