<svg width="10" height="16" viewBox="0 0 10 16" fill="none" xmlns="http://www.w3.org/2000/svg">
<path d="M9.72308 7.38462V7.17363C9.72308 6.85714 9.45934 6.59341 9.14286 6.59341H2.54945L1.95165 3.00659C1.95165 2.98901 1.95165 2.95385 1.95165 2.93626V0.474725C1.95165 0.210989 1.74066 0 1.47692 0H0.474725C0.210989 0 0 0.210989 0 0.474725V3.07692C0 3.11209 0 3.12967 0 3.16484L1.47692 11.9033C1.51209 12.1319 1.70549 12.2901 1.95165 12.2901H8.86154C9.07253 12.2901 9.26593 12.1319 9.31868 11.9209L9.72308 10.233C9.79341 9.93407 9.56483 9.65275 9.26593 9.65275H3.46374C3.23516 9.65275 3.04176 9.49451 2.98901 9.26593L2.77802 7.96484H9.14286C9.45934 7.96484 9.72308 7.7011 9.72308 7.38462ZM8.66813 16H2.21538C1.8989 16 1.65275 15.7538 1.65275 15.4374V15.2088C1.65275 14.8923 1.8989 14.6462 2.21538 14.6462H8.68571C9.0022 14.6462 9.24835 14.8923 9.24835 15.2088V15.4198C9.23077 15.7538 8.98461 16 8.66813 16Z" fill="#518EF8" fill-opacity="0.5"/>
</svg>
