<svg width="60" height="60" viewBox="0 0 60 60" fill="none" xmlns="http://www.w3.org/2000/svg">
<path d="M59.8843 32.6932C59.3456 27.0817 56.9248 21.7913 53.0676 17.7967C49.7713 14.3831 45.7367 12.1895 41.4914 11.2141V8.13047C43.2254 7.68373 44.5142 6.05832 44.5142 4.12634C44.5142 1.85103 42.7269 0 40.5298 0H32.0922C29.8951 0 28.1077 1.85103 28.1077 4.12634C28.1077 6.0582 29.3966 7.68361 31.1304 8.13047V11.2227C26.8981 12.2022 22.8769 14.3928 19.5899 17.7968C18.8706 18.5417 18.2073 19.3232 17.6002 20.1353C17.5708 20.133 17.5414 20.1307 17.5114 20.1307H9.16033C8.51321 20.1307 7.98844 20.6741 7.98844 21.3443C7.98844 22.0146 8.51321 22.558 9.16033 22.558H16.0056C15.1464 24.0477 14.4535 25.6122 13.9262 27.2227H1.17189C0.524774 27.2227 0 27.766 0 28.4363C0 29.1066 0.524774 29.6499 1.17189 29.6499H13.2639C12.9262 31.1853 12.7324 32.7478 12.6823 34.3148H7.50011C6.85299 34.3148 6.32822 34.8581 6.32822 35.5284C6.32822 36.1987 6.85299 36.742 7.50011 36.742H12.7197C12.8186 38.3129 13.0625 39.8756 13.4515 41.4068H5.85946C5.21234 41.4068 4.68757 41.9502 4.68757 42.6205C4.68757 43.2908 5.21234 43.8341 5.85946 43.8341H14.1994C15.349 46.9836 17.1456 49.9355 19.5899 52.4669C23.4509 56.4653 28.5645 58.9729 33.9888 59.5279C34.7629 59.607 35.5376 59.6462 36.3113 59.6462C40.8843 59.6462 45.3991 58.2757 49.23 55.6921C49.7724 55.3263 49.9258 54.5745 49.5726 54.0128C49.2194 53.4511 48.4934 53.2923 47.951 53.6581C39.5653 59.3132 28.3347 58.0905 21.2472 50.7506C12.9313 42.1384 12.9313 28.1255 21.2472 19.5132C29.5631 10.9012 43.0941 10.9012 51.4102 19.5132C58.4883 26.8435 59.6755 38.4642 54.2328 47.1443C53.8803 47.7064 54.0347 48.4582 54.5774 48.8231C55.1204 49.1882 55.8461 49.0283 56.1985 48.4662C59.1064 43.8283 60.4154 38.2268 59.8843 32.6932ZM30.4515 4.12646C30.4515 3.18954 31.1875 2.42738 32.0922 2.42738H40.5298C41.4345 2.42738 42.1704 3.18954 42.1704 4.12646C42.1704 5.06338 41.4345 5.82554 40.5298 5.82554H40.3195H32.3023H32.0922C31.1875 5.82554 30.4515 5.06326 30.4515 4.12646ZM33.4742 10.8054V8.2528H39.1477V10.8011C37.2637 10.569 35.3578 10.5705 33.4742 10.8054Z" fill="#518EF8"/>
<path d="M52.2393 50.3945C51.9299 50.3945 51.6287 50.5244 51.4109 50.7501C51.1917 50.9759 51.0674 51.289 51.0674 51.6082C51.0674 51.9273 51.1917 52.2405 51.4109 52.4662C51.6287 52.6931 51.93 52.8218 52.2393 52.8218C52.5475 52.8218 52.8486 52.6931 53.0678 52.4662C53.2857 52.2405 53.4111 51.9273 53.4111 51.6082C53.4111 51.289 53.2859 50.9759 53.0678 50.7501C52.8486 50.5244 52.5473 50.3945 52.2393 50.3945Z" fill="#518EF8"/>
<path d="M36.3289 16.3047C26.3047 16.3047 18.1494 24.7503 18.1494 35.1316C18.1494 45.5129 26.3047 53.9585 36.3289 53.9585C46.353 53.9585 54.5083 45.5129 54.5083 35.1316C54.5083 24.7503 46.353 16.3047 36.3289 16.3047ZM36.3289 51.5312C27.597 51.5312 20.4932 44.1743 20.4932 35.1316C20.4932 26.0888 27.597 18.7319 36.3289 18.7319C45.0608 18.7319 52.1645 26.0888 52.1645 35.1316C52.1645 44.1743 45.0608 51.5312 36.3289 51.5312Z" fill="#518EF8"/>
<path d="M43.7419 25.7385L37.9375 31.7495C37.4521 31.5009 36.9061 31.3605 36.329 31.3605C35.7517 31.3605 35.2058 31.5009 34.7204 31.7495L32.1227 29.0592C31.665 28.5853 30.9231 28.5853 30.4653 29.0592C30.0077 29.5331 30.0077 30.3016 30.4653 30.7755L33.063 33.4658C32.8229 33.9685 32.6874 34.5339 32.6874 35.1316C32.6874 37.211 34.3209 38.9028 36.329 38.9028C38.337 38.9028 39.9705 37.211 39.9705 35.1316C39.9705 34.5339 39.8349 33.9685 39.5949 33.4658L45.2289 27.6311L45.3992 27.4548C45.8568 26.9809 45.8568 26.2124 45.3992 25.7385C44.9416 25.2646 44.1998 25.2646 43.7419 25.7385ZM36.329 36.4757C35.6134 36.4757 35.0312 35.8728 35.0312 35.1317C35.0312 34.3907 35.6134 33.7878 36.329 33.7878C37.0445 33.7878 37.6267 34.3907 37.6267 35.1317C37.6267 35.8728 37.0445 36.4757 36.329 36.4757Z" fill="#28B446"/>
<path d="M48.8592 33.9326H47.7734C47.1263 33.9326 46.6016 34.476 46.6016 35.1462C46.6016 35.8165 47.1263 36.3599 47.7734 36.3599H48.8592C49.5063 36.3599 50.0311 35.8165 50.0311 35.1462C50.0311 34.476 49.5063 33.9326 48.8592 33.9326Z" fill="#518EF8"/>
<path d="M24.8845 33.9038H23.7988C23.1517 33.9038 22.627 34.447 22.627 35.1172C22.627 35.7873 23.1517 36.3306 23.7988 36.3306H24.8845C25.5316 36.3306 26.0563 35.7873 26.0563 35.1172C26.0563 34.447 25.5316 33.9038 24.8845 33.9038Z" fill="#518EF8"/>
<path d="M36.3428 24.4937C36.9899 24.4937 37.5146 23.9503 37.5146 23.28V22.1556C37.5146 21.4853 36.9899 20.9419 36.3428 20.9419C35.6957 20.9419 35.1709 21.4853 35.1709 22.1556V23.28C35.1709 23.9503 35.6957 24.4937 36.3428 24.4937Z" fill="#518EF8"/>
<path d="M36.3145 45.7698C35.6673 45.7698 35.1426 46.3131 35.1426 46.9834V48.1077C35.1426 48.778 35.6673 49.3213 36.3145 49.3213C36.9616 49.3213 37.4863 48.778 37.4863 48.1077V46.9834C37.4863 46.3131 36.9616 45.7698 36.3145 45.7698Z" fill="#518EF8"/>
<path d="M1.17188 41.4067C0.863672 41.4067 0.561328 41.5366 0.343359 41.7623C0.125391 41.988 0 42.3011 0 42.6202C0 42.9406 0.125273 43.2525 0.343359 43.4782C0.561445 43.7039 0.863672 43.8337 1.17188 43.8337C1.48008 43.8337 1.78242 43.7039 2.00027 43.4782C2.21824 43.2525 2.34375 42.9394 2.34375 42.6202C2.34375 42.3011 2.21836 41.988 2.00027 41.7623C1.78242 41.5366 1.48008 41.4067 1.17188 41.4067Z" fill="#518EF8"/>
</svg>
