<svg width="60" height="54" viewBox="0 0 60 54" fill="none" xmlns="http://www.w3.org/2000/svg">
<path d="M46.8416 34.3219C44.7648 32.2451 42.0035 31.1016 39.0665 31.1016H30.0156C29.3683 31.1016 28.8438 31.6262 28.8438 32.2734C28.8438 32.9207 29.3683 33.4453 30.0156 33.4453H39.0665C40.9804 33.4453 42.7978 34.0638 44.2946 35.204H38.547C36.4792 35.204 34.797 36.8863 34.797 38.954C34.797 41.0218 36.4792 42.704 38.547 42.704H51.3039C51.3186 42.8061 51.3286 42.9091 51.3286 43.0139C51.3286 44.1996 50.3641 45.1641 49.179 45.1641H30.0156C29.3683 45.1641 28.8438 45.6887 28.8438 46.3359C28.8438 46.9832 29.3683 47.5078 30.0156 47.5078H49.179C51.6569 47.5078 53.6724 45.4918 53.6724 43.0139C53.6724 41.8137 53.205 40.6853 52.3563 39.8366L46.8416 34.3219ZM37.1407 38.954C37.1407 38.1786 37.7715 37.5478 38.547 37.5478H46.7528L49.5653 40.3603H38.547C37.7715 40.3603 37.1407 39.7295 37.1407 38.954Z" fill="#28B446"/>
<path d="M10.8984 33.4453H23.3656C24.0125 33.4453 24.5375 32.9207 24.5375 32.2734C24.5375 31.6262 24.0125 31.1016 23.3656 31.1016H10.8984C10.2512 31.1016 9.72656 31.6262 9.72656 32.2734C9.72656 32.9207 10.2512 33.4453 10.8984 33.4453Z" fill="#28B446"/>
<path d="M18.1641 45.1641H10.8984C10.2512 45.1641 9.72656 45.6887 9.72656 46.3359C9.72656 46.9832 10.2512 47.5078 10.8984 47.5078H18.1641C18.8113 47.5078 19.3359 46.9832 19.3359 46.3359C19.3359 45.6887 18.8113 45.1641 18.1641 45.1641Z" fill="#28B446"/>
<path d="M23.3662 45.1641C23.0568 45.1641 22.7556 45.2895 22.5363 45.5074C22.3184 45.7253 22.1943 46.0274 22.1943 46.3359C22.1943 46.644 22.3184 46.9466 22.5363 47.1645C22.7546 47.3824 23.0568 47.5078 23.3662 47.5078C23.6743 47.5078 23.9769 47.3824 24.1948 47.1645C24.4127 46.9466 24.5381 46.644 24.5381 46.3359C24.5381 46.0274 24.4127 45.7253 24.1948 45.5074C23.9755 45.2895 23.6743 45.1641 23.3662 45.1641Z" fill="#28B446"/>
<path d="M10.8984 42.8203H23.3656C24.0125 42.8203 24.5375 42.2957 24.5375 41.6484C24.5375 41.0012 24.0125 40.4766 23.3656 40.4766H10.8984C10.2512 40.4766 9.72656 41.0012 9.72656 41.6484C9.72656 42.2957 10.2512 42.8203 10.8984 42.8203Z" fill="#28B446"/>
<path d="M10.8984 38.1328H14.5116C15.1588 38.1328 15.6834 37.6082 15.6834 36.9609C15.6834 36.3137 15.1588 35.7891 14.5116 35.7891H10.8984C10.2512 35.7891 9.72656 36.3137 9.72656 36.9609C9.72656 37.6082 10.2512 38.1328 10.8984 38.1328Z" fill="#28B446"/>
<path d="M23.3658 35.7891H20.0781C19.4313 35.7891 18.9062 36.3137 18.9062 36.9609C18.9062 37.6082 19.4313 38.1328 20.0781 38.1328H23.3658C24.0126 38.1328 24.5377 37.6082 24.5377 36.9609C24.5377 36.3137 24.0126 35.7891 23.3658 35.7891Z" fill="#28B446"/>
<path d="M59.3953 22.8105L59.6567 22.5492C60.1144 22.0914 60.1144 21.3494 59.6567 20.8916L52.1159 13.3509C51.6586 12.8936 50.9166 12.8936 50.4588 13.3509C49.4536 14.3561 47.818 14.3566 46.8127 13.3509C46.3257 12.8643 46.0574 12.2165 46.0574 11.528C46.0574 10.8396 46.3257 10.1918 46.8127 9.70523C47.0325 9.4855 47.1561 9.18704 47.1561 8.87668C47.1561 8.56586 47.0325 8.2674 46.8127 8.04767L39.272 0.507385C38.8142 0.0496216 38.0727 0.0496216 37.6149 0.507385L15.4582 22.6641H1.17188C0.524597 22.6641 0 23.1887 0 23.8359V34.5C0 35.1473 0.524597 35.6719 1.17188 35.6719C2.59369 35.6719 3.75 36.8282 3.75 38.25C3.75 39.6714 2.59369 40.8281 1.17188 40.8281C0.524597 40.8281 0 41.3527 0 42V52.6641C0 53.3113 0.524597 53.8359 1.17188 53.8359H58.8281C59.4754 53.8359 60 53.3113 60 52.6641V42C60 41.3527 59.4754 40.8281 58.8281 40.8281C57.4063 40.8281 56.25 39.6714 56.25 38.25C56.25 36.8282 57.4063 35.6719 58.8281 35.6719C59.4754 35.6719 60 35.1473 60 34.5V23.8359C60 23.3942 59.7556 23.0101 59.3953 22.8105ZM57.6562 33.4691C55.5061 33.996 53.9062 35.9397 53.9062 38.25C53.9062 40.5603 55.5061 42.5035 57.6562 43.0309V51.4922H2.34375V43.0309C4.49387 42.5035 6.09375 40.5603 6.09375 38.25C6.09375 35.9397 4.49387 33.996 2.34375 33.4691V25.0078H32.6367C33.284 25.0078 33.8086 24.4832 33.8086 23.8359C33.8086 23.1887 33.284 22.6641 32.6367 22.6641H18.7729L38.4435 2.99304L44.4255 8.9751C43.9618 9.73682 43.7141 10.6134 43.7141 11.528C43.7141 12.8427 44.2259 14.0787 45.1556 15.0084C46.7894 16.6417 49.2947 16.8848 51.188 15.7372L57.171 21.7202L56.2271 22.6641H42.4805C41.8332 22.6641 41.3086 23.1887 41.3086 23.8359C41.3086 24.4832 41.8332 25.0078 42.4805 25.0078H57.6562V33.4691Z" fill="#518EF8"/>
<path d="M37.3857 25.0078C37.6942 25.0078 37.9963 24.8824 38.2133 24.6645C38.4326 24.4466 38.5566 24.144 38.5566 23.8359C38.5566 23.5274 38.4326 23.2253 38.2133 23.0074C37.9954 22.7895 37.6942 22.6641 37.3857 22.6641C37.0767 22.6641 36.7741 22.7895 36.5562 23.0074C36.3383 23.2253 36.2129 23.5274 36.2129 23.8359C36.2129 24.144 36.3383 24.4466 36.5562 24.6645C36.7741 24.8824 37.0767 25.0078 37.3857 25.0078Z" fill="#28B446"/>
</svg>
