<svg width="60" height="60" viewBox="0 0 60 60" fill="none" xmlns="http://www.w3.org/2000/svg">
<path d="M55 20.8448H51.975C51.7056 15.2267 49.2727 9.92748 45.1811 6.04632C41.0895 2.16516 35.6532 0 30 0C24.3468 0 18.9105 2.16516 14.8189 6.04632C10.7273 9.92748 8.29443 15.2267 8.025 20.8448H5C3.67441 20.8464 2.40356 21.371 1.46622 22.3036C0.528882 23.2361 0.00158786 24.5005 0 25.8194V33.7786C0.00158786 35.0975 0.528882 36.3618 1.46622 37.2944C2.40356 38.227 3.67441 38.7516 5 38.7532H9C9.79565 38.7532 10.5587 38.4387 11.1213 37.879C11.6839 37.3192 12 36.56 12 35.7684V23.8295C11.9972 23.222 11.8082 22.6298 11.4581 22.132C11.1081 21.6343 10.6137 21.2546 10.041 21.0438C10.2411 15.9105 12.4314 11.0538 16.1526 7.49231C19.8737 3.93087 24.8366 1.9415 30 1.9415C35.1634 1.9415 40.1263 3.93087 43.8474 7.49231C47.5686 11.0538 49.7589 15.9105 49.959 21.0438C49.3863 21.2546 48.8919 21.6343 48.5419 22.132C48.1918 22.6298 48.0028 23.222 48 23.8295V35.7684C48.0026 36.3835 48.1961 36.9829 48.5541 37.4844C48.9121 37.9859 49.4171 38.3651 50 38.5701V41.7379C49.9949 45.0196 48.7366 48.1768 46.4798 50.5702C44.223 52.9636 41.1365 54.4144 37.845 54.6289C37.6165 53.7872 37.1165 53.0434 36.4218 52.5119C35.7272 51.9804 34.8763 51.6906 34 51.687H26C24.9391 51.687 23.9217 52.1063 23.1716 52.8526C22.4214 53.5989 22 54.6111 22 55.6666C22 56.7221 22.4214 57.7343 23.1716 58.4806C23.9217 59.227 24.9391 59.6462 26 59.6462H34C34.8925 59.6436 35.7584 59.344 36.4601 58.7952C37.1617 58.2464 37.6587 57.48 37.872 56.6177C41.6891 56.3952 45.2768 54.7313 47.9025 51.9658C50.5282 49.2004 51.9938 45.5421 52 41.7379V38.7532H55C56.3256 38.7516 57.5964 38.227 58.5338 37.2944C59.4711 36.3618 59.9984 35.0975 60 33.7786V25.8194C59.9984 24.5005 59.4711 23.2361 58.5338 22.3036C57.5964 21.371 56.3256 20.8464 55 20.8448ZM6 36.7633H5C4.20435 36.7633 3.44129 36.4489 2.87868 35.8891C2.31607 35.3294 2 34.5702 2 33.7786V25.8194C2 25.0278 2.31607 24.2686 2.87868 23.7088C3.44129 23.1491 4.20435 22.8346 5 22.8346H6V36.7633ZM10 35.7684C10 36.0323 9.89464 36.2854 9.70711 36.4719C9.51957 36.6585 9.26522 36.7633 9 36.7633H8V22.8346H9C9.26522 22.8346 9.51957 22.9394 9.70711 23.126C9.89464 23.3126 10 23.5657 10 23.8295V35.7684ZM34 57.6564H26C25.4696 57.6564 24.9609 57.4468 24.5858 57.0736C24.2107 56.7005 24 56.1943 24 55.6666C24 55.1389 24.2107 54.6328 24.5858 54.2596C24.9609 53.8864 25.4696 53.6768 26 53.6768H34C34.5304 53.6768 35.0391 53.8864 35.4142 54.2596C35.7893 54.6328 36 55.1389 36 55.6666C36 56.1943 35.7893 56.7005 35.4142 57.0736C35.0391 57.4468 34.5304 57.6564 34 57.6564ZM52 36.7633H51C50.7348 36.7633 50.4804 36.6585 50.2929 36.4719C50.1054 36.2854 50 36.0323 50 35.7684V23.8295C50 23.5657 50.1054 23.3126 50.2929 23.126C50.4804 22.9394 50.7348 22.8346 51 22.8346H52V36.7633ZM58 33.7786C58 34.5702 57.6839 35.3294 57.1213 35.8891C56.5587 36.4489 55.7957 36.7633 55 36.7633H54V22.8346H55C55.7957 22.8346 56.5587 23.1491 57.1213 23.7088C57.6839 24.2686 58 25.0278 58 25.8194V33.7786Z" fill="#518EF8"/>
<path d="M44 29.7991C44 27.0442 43.1789 24.3513 41.6406 22.0607C40.1022 19.7701 37.9157 17.9849 35.3576 16.9306C32.7994 15.8764 29.9845 15.6006 27.2687 16.138C24.553 16.6754 22.0584 18.002 20.1005 19.95C18.1426 21.898 16.8092 24.3798 16.269 27.0817C15.7288 29.7836 16.0061 32.5842 17.0657 35.1294C18.1253 37.6745 19.9197 39.8499 22.222 41.3804C24.5243 42.9109 27.2311 43.7278 30 43.7278C33.7118 43.7238 37.2705 42.2551 39.8951 39.6438C42.5198 37.0325 43.996 33.492 44 29.7991ZM18 29.7991C18 27.4378 18.7038 25.1295 20.0224 23.1662C21.3409 21.2028 23.2151 19.6726 25.4078 18.769C27.6005 17.8654 30.0133 17.6289 32.3411 18.0896C34.6689 18.5503 36.8071 19.6873 38.4853 21.357C40.1635 23.0267 41.3064 25.154 41.7694 27.4699C42.2324 29.7858 41.9948 32.1863 41.0866 34.3679C40.1783 36.5494 38.6402 38.414 36.6668 39.7259C34.6935 41.0378 32.3734 41.738 30 41.738C26.8185 41.7345 23.7682 40.4756 21.5185 38.2374C19.2688 35.9991 18.0034 32.9644 18 29.7991Z" fill="#28B446"/>
<path d="M37.707 23.5381L36.293 22.1313L30 28.3922L26.707 25.116L25.293 26.5228L30 31.2058L37.707 23.5381Z" fill="#28B446"/>
</svg>
